<?xml version="1.0" encoding="utf-8"?>
<!-- Generator: Adobe Illustrator 21.0.0, SVG Export Plug-In . SVG Version: 6.00 Build 0)  -->
<svg version="1.1" xmlns="http://www.w3.org/2000/svg" xmlns:xlink="http://www.w3.org/1999/xlink" x="0px" y="0px"
	 viewBox="0 0 350 448.5" style="enable-background:new 0 0 350 448.5;" xml:space="preserve">
<style type="text/css">
	.st0{fill:none;stroke:#F7931E;stroke-width:3;}
	.st1{fill:none;stroke:#0071BC;stroke-width:3;}
	.st2{fill:#0071BC;}
	.st3{opacity:0.4;fill:#0071BC;}
	.st4{opacity:0.4;fill:#F7931E;}
	.st5{fill:#F7931E;}
	.st6{opacity:0.6;fill:#C7B299;}
	.st7{fill:#FFFFFF;}
	.st8{fill:none;stroke:#1A1A1A;stroke-width:2.5;}
	.st9{fill:none;stroke:#666666;stroke-width:0.75;}
</style>
<g id="Layer_1">
	<polyline class="st0" points="46.5,118.5 179.5,174.1 312.5,109.1 	"/>
	<polyline class="st1" points="46.5,227.5 179.5,94.5 312.5,236.9 	"/>
	<rect x="18.1" y="401.1" class="st2" width="63.4" height="26.3"/>
	<rect x="81.5" y="401.1" class="st3" width="250.4" height="26.3"/>
	<rect x="81.5" y="374.8" class="st4" width="250.4" height="26.3"/>
	<rect x="18.1" y="374.8" class="st5" width="63.4" height="26.3"/>
</g>
<g id="Layer_2">
	<rect x="18.1" y="322.1" class="st6" width="313.8" height="26.3"/>
	<g>
		<path d="M20.4,20.4h2.2l-3.4,10.1h-2l-3.4-10.1H16l2.2,7.6L20.4,20.4z"/>
		<path d="M26.2,26c0.4,0,0.6-0.1,0.8-0.2c0.3-0.1,0.4-0.3,0.4-0.6c0-0.3-0.1-0.5-0.3-0.6s-0.5-0.2-0.9-0.2c-0.5,0-0.8,0.1-1,0.3
			c-0.1,0.2-0.2,0.4-0.3,0.7H23c0-0.7,0.2-1.2,0.5-1.6c0.5-0.7,1.4-1,2.7-1c0.8,0,1.5,0.2,2.2,0.5s1,0.9,1,1.8v3.4
			c0,0.2,0,0.5,0,0.9c0,0.3,0.1,0.4,0.1,0.5s0.2,0.2,0.3,0.2v0.3h-2.1c-0.1-0.2-0.1-0.3-0.1-0.4s0-0.3-0.1-0.5
			c-0.3,0.3-0.6,0.5-0.9,0.7c-0.4,0.2-0.9,0.4-1.4,0.4c-0.7,0-1.2-0.2-1.7-0.6s-0.7-0.9-0.7-1.6c0-0.9,0.4-1.6,1.1-2
			c0.4-0.2,1-0.4,1.7-0.5L26.2,26z M27.4,26.9C27.3,27,27.1,27,27,27.1s-0.3,0.1-0.5,0.1L26,27.3c-0.4,0.1-0.7,0.2-0.9,0.3
			c-0.3,0.2-0.5,0.5-0.5,0.8c0,0.3,0.1,0.6,0.3,0.7c0.2,0.1,0.4,0.2,0.7,0.2c0.4,0,0.8-0.1,1.2-0.4c0.4-0.2,0.5-0.7,0.6-1.3V26.9z"
			/>
		<path d="M35.5,22.9c0,0,0.1,0,0.2,0v2c-0.1,0-0.2,0-0.3,0s-0.2,0-0.2,0c-0.8,0-1.3,0.3-1.6,0.8c-0.2,0.3-0.2,0.7-0.2,1.3v3.6h-2
			V23h1.9v1.3c0.3-0.5,0.6-0.8,0.8-1C34.4,23,34.9,22.9,35.5,22.9C35.5,22.9,35.5,22.9,35.5,22.9z"/>
		<path d="M39.2,22.2h-2v-1.8h2V22.2z M37.2,23h2v7.5h-2V23z"/>
		<path d="M44.4,26c0.4,0,0.6-0.1,0.8-0.2c0.3-0.1,0.4-0.3,0.4-0.6c0-0.3-0.1-0.5-0.3-0.6s-0.5-0.2-0.9-0.2c-0.5,0-0.8,0.1-1,0.3
			c-0.1,0.2-0.2,0.4-0.3,0.7h-1.9c0-0.7,0.2-1.2,0.5-1.6c0.5-0.7,1.4-1,2.7-1c0.8,0,1.5,0.2,2.2,0.5s1,0.9,1,1.8v3.4
			c0,0.2,0,0.5,0,0.9c0,0.3,0.1,0.4,0.1,0.5s0.2,0.2,0.3,0.2v0.3h-2.1c-0.1-0.2-0.1-0.3-0.1-0.4s0-0.3-0.1-0.5
			c-0.3,0.3-0.6,0.5-0.9,0.7c-0.4,0.2-0.9,0.4-1.4,0.4c-0.7,0-1.2-0.2-1.7-0.6s-0.7-0.9-0.7-1.6c0-0.9,0.4-1.6,1.1-2
			c0.4-0.2,1-0.4,1.7-0.5L44.4,26z M45.6,26.9c-0.1,0.1-0.3,0.1-0.4,0.2s-0.3,0.1-0.5,0.1l-0.4,0.1c-0.4,0.1-0.7,0.2-0.9,0.3
			c-0.3,0.2-0.5,0.5-0.5,0.8c0,0.3,0.1,0.6,0.3,0.7c0.2,0.1,0.4,0.2,0.7,0.2c0.4,0,0.8-0.1,1.2-0.4c0.4-0.2,0.5-0.7,0.6-1.3V26.9z"
			/>
		<path d="M55.9,23.9c0.6,0.7,0.8,1.6,0.8,2.7c0,1.2-0.3,2.1-0.8,2.9c-0.5,0.8-1.3,1.1-2.3,1.1c-0.6,0-1.1-0.1-1.5-0.4
			c-0.2-0.1-0.5-0.4-0.7-0.8v0.9h-1.9V20.4h1.9V24c0.2-0.3,0.5-0.6,0.8-0.8c0.4-0.2,0.8-0.3,1.3-0.3C54.6,22.9,55.4,23.2,55.9,23.9z
			 M54.3,28.5c0.3-0.4,0.4-0.9,0.4-1.6c0-0.5-0.1-1-0.2-1.3c-0.3-0.7-0.7-1-1.4-1c-0.7,0-1.2,0.3-1.5,1c-0.1,0.3-0.2,0.8-0.2,1.3
			c0,0.6,0.1,1.2,0.4,1.6c0.3,0.4,0.7,0.6,1.3,0.6C53.6,29.1,54,28.9,54.3,28.5z"/>
		<path d="M60.5,30.5h-1.9V20.4h1.9V30.5z"/>
		<path d="M67.6,23.2c0.5,0.2,0.9,0.6,1.3,1.1c0.3,0.4,0.5,1,0.6,1.5c0.1,0.3,0.1,0.8,0.1,1.5h-5.4c0,0.7,0.3,1.3,0.8,1.6
			c0.3,0.2,0.7,0.3,1.1,0.3c0.4,0,0.8-0.1,1.1-0.3c0.2-0.1,0.3-0.3,0.4-0.5h2c-0.1,0.4-0.3,0.9-0.7,1.3c-0.7,0.7-1.6,1.1-2.8,1.1
			c-1,0-1.9-0.3-2.6-0.9c-0.8-0.6-1.1-1.6-1.1-3c0-1.3,0.3-2.3,1-3c0.7-0.7,1.6-1,2.7-1C66.5,22.9,67,23,67.6,23.2z M64.6,24.9
			c-0.3,0.3-0.4,0.7-0.5,1.2h3.4c0-0.5-0.2-0.9-0.5-1.2c-0.3-0.3-0.7-0.4-1.2-0.4C65.3,24.5,64.9,24.6,64.6,24.9z"/>
		<path d="M40.6,37.2H43l3.6,10.1h-2.3l-0.7-2.1h-3.7l-0.7,2.1h-2.2L40.6,37.2z M40.5,43.5h2.6l-1.3-4L40.5,43.5z"/>
	</g>
	<g>
		<path d="M155.4,20.4h2.2l-3.4,10.1h-2l-3.4-10.1h2.2l2.2,7.6L155.4,20.4z"/>
		<path d="M161.2,26c0.4,0,0.6-0.1,0.8-0.2c0.3-0.1,0.4-0.3,0.4-0.6c0-0.3-0.1-0.5-0.3-0.6s-0.5-0.2-0.9-0.2c-0.5,0-0.8,0.1-1,0.3
			c-0.1,0.2-0.2,0.4-0.3,0.7H158c0-0.7,0.2-1.2,0.5-1.6c0.5-0.7,1.4-1,2.7-1c0.8,0,1.5,0.2,2.2,0.5s1,0.9,1,1.8v3.4
			c0,0.2,0,0.5,0,0.9c0,0.3,0.1,0.4,0.1,0.5s0.2,0.2,0.3,0.2v0.3h-2.1c-0.1-0.2-0.1-0.3-0.1-0.4s0-0.3-0.1-0.5
			c-0.3,0.3-0.6,0.5-0.9,0.7c-0.4,0.2-0.9,0.4-1.4,0.4c-0.7,0-1.2-0.2-1.7-0.6s-0.7-0.9-0.7-1.6c0-0.9,0.4-1.6,1.1-2
			c0.4-0.2,1-0.4,1.7-0.5L161.2,26z M162.4,26.9c-0.1,0.1-0.3,0.1-0.4,0.2s-0.3,0.1-0.5,0.1l-0.4,0.1c-0.4,0.1-0.7,0.2-0.9,0.3
			c-0.3,0.2-0.5,0.5-0.5,0.8c0,0.3,0.1,0.6,0.3,0.7c0.2,0.1,0.4,0.2,0.7,0.2c0.4,0,0.8-0.1,1.2-0.4c0.4-0.2,0.5-0.7,0.6-1.3V26.9z"
			/>
		<path d="M170.5,22.9c0,0,0.1,0,0.2,0v2c-0.1,0-0.2,0-0.3,0s-0.2,0-0.2,0c-0.8,0-1.3,0.3-1.6,0.8c-0.2,0.3-0.2,0.7-0.2,1.3v3.6h-2
			V23h1.9v1.3c0.3-0.5,0.6-0.8,0.8-1C169.4,23,169.9,22.9,170.5,22.9C170.5,22.9,170.5,22.9,170.5,22.9z"/>
		<path d="M174.2,22.2h-2v-1.8h2V22.2z M172.2,23h2v7.5h-2V23z"/>
		<path d="M179.4,26c0.4,0,0.6-0.1,0.8-0.2c0.3-0.1,0.4-0.3,0.4-0.6c0-0.3-0.1-0.5-0.3-0.6s-0.5-0.2-0.9-0.2c-0.5,0-0.8,0.1-1,0.3
			c-0.1,0.2-0.2,0.4-0.3,0.7h-1.9c0-0.7,0.2-1.2,0.5-1.6c0.5-0.7,1.4-1,2.7-1c0.8,0,1.5,0.2,2.2,0.5c0.6,0.3,1,0.9,1,1.8v3.4
			c0,0.2,0,0.5,0,0.9c0,0.3,0.1,0.4,0.1,0.5c0.1,0.1,0.2,0.2,0.3,0.2v0.3h-2.1c-0.1-0.2-0.1-0.3-0.1-0.4c0-0.1,0-0.3-0.1-0.5
			c-0.3,0.3-0.6,0.5-0.9,0.7c-0.4,0.2-0.9,0.4-1.4,0.4c-0.7,0-1.2-0.2-1.7-0.6s-0.7-0.9-0.7-1.6c0-0.9,0.4-1.6,1.1-2
			c0.4-0.2,1-0.4,1.7-0.5L179.4,26z M180.6,26.9c-0.1,0.1-0.3,0.1-0.4,0.2s-0.3,0.1-0.5,0.1l-0.4,0.1c-0.4,0.1-0.7,0.2-0.9,0.3
			c-0.3,0.2-0.5,0.5-0.5,0.8c0,0.3,0.1,0.6,0.3,0.7s0.4,0.2,0.7,0.2c0.4,0,0.8-0.1,1.2-0.4c0.4-0.2,0.5-0.7,0.6-1.3V26.9z"/>
		<path d="M190.9,23.9c0.6,0.7,0.8,1.6,0.8,2.7c0,1.2-0.3,2.1-0.8,2.9c-0.5,0.8-1.3,1.1-2.3,1.1c-0.6,0-1.1-0.1-1.5-0.4
			c-0.2-0.1-0.5-0.4-0.7-0.8v0.9h-1.9V20.4h1.9V24c0.2-0.3,0.5-0.6,0.8-0.8c0.4-0.2,0.8-0.3,1.3-0.3
			C189.6,22.9,190.4,23.2,190.9,23.9z M189.3,28.5c0.3-0.4,0.4-0.9,0.4-1.6c0-0.5-0.1-1-0.2-1.3c-0.3-0.7-0.7-1-1.4-1
			c-0.7,0-1.2,0.3-1.5,1c-0.1,0.3-0.2,0.8-0.2,1.3c0,0.6,0.1,1.2,0.4,1.6s0.7,0.6,1.3,0.6C188.6,29.1,189,28.9,189.3,28.5z"/>
		<path d="M195.5,30.5h-1.9V20.4h1.9V30.5z"/>
		<path d="M202.6,23.2c0.5,0.2,0.9,0.6,1.3,1.1c0.3,0.4,0.5,1,0.6,1.5c0.1,0.3,0.1,0.8,0.1,1.5h-5.4c0,0.7,0.3,1.3,0.8,1.6
			c0.3,0.2,0.7,0.3,1.1,0.3c0.4,0,0.8-0.1,1.1-0.3c0.2-0.1,0.3-0.3,0.4-0.5h2c-0.1,0.4-0.3,0.9-0.7,1.3c-0.7,0.7-1.6,1.1-2.8,1.1
			c-1,0-1.9-0.3-2.6-0.9c-0.8-0.6-1.1-1.6-1.1-3c0-1.3,0.3-2.3,1-3c0.7-0.7,1.6-1,2.7-1C201.5,22.9,202,23,202.6,23.2z M199.6,24.9
			c-0.3,0.3-0.4,0.7-0.5,1.2h3.4c0-0.5-0.2-0.9-0.5-1.2c-0.3-0.3-0.7-0.4-1.2-0.4C200.3,24.5,199.9,24.6,199.6,24.9z"/>
		<path d="M180,38.3c0.3,0.4,0.5,0.9,0.5,1.5c0,0.6-0.2,1.1-0.5,1.5c-0.2,0.2-0.4,0.4-0.8,0.6c0.5,0.2,0.9,0.5,1.2,0.9
			s0.4,0.9,0.4,1.5c0,0.6-0.2,1.1-0.4,1.6c-0.2,0.3-0.4,0.6-0.7,0.8c-0.3,0.2-0.7,0.4-1.1,0.5s-0.9,0.1-1.4,0.1h-4.5V37.2h4.9
			C178.6,37.2,179.5,37.6,180,38.3z M174.6,39v2.2h2.4c0.4,0,0.8-0.1,1.1-0.2c0.3-0.2,0.4-0.5,0.4-0.9c0-0.5-0.2-0.8-0.5-0.9
			c-0.3-0.1-0.7-0.2-1.2-0.2H174.6z M174.6,42.9v2.7h2.4c0.4,0,0.8-0.1,1-0.2c0.4-0.2,0.7-0.6,0.7-1.3c0-0.5-0.2-0.9-0.6-1.1
			c-0.2-0.1-0.6-0.2-1-0.2H174.6z"/>
	</g>
	<g>
		<path class="st7" d="M24.9,383.1h1.4v10h-1.4V383.1z"/>
		<path class="st7" d="M28.9,383.7h1.2v2h1.2v1h-1.2v4.8c0,0.3,0.1,0.4,0.3,0.5c0.1,0.1,0.3,0.1,0.5,0.1c0.1,0,0.1,0,0.2,0
			s0.1,0,0.2,0v1c-0.1,0-0.3,0.1-0.4,0.1c-0.2,0-0.3,0-0.5,0c-0.6,0-1-0.1-1.2-0.4s-0.3-0.7-0.3-1.1v-4.8h-1v-1h1V383.7z"/>
		<path class="st7" d="M37.4,386c0.5,0.2,0.9,0.6,1.1,0.9c0.2,0.4,0.4,0.8,0.5,1.3c0.1,0.3,0.1,0.9,0.1,1.6h-5.3
			c0,0.7,0.2,1.3,0.5,1.8c0.3,0.5,0.8,0.7,1.5,0.7c0.6,0,1.1-0.2,1.5-0.6c0.2-0.2,0.4-0.5,0.5-0.9H39c0,0.3-0.1,0.6-0.3,0.9
			c-0.2,0.3-0.4,0.6-0.6,0.8c-0.4,0.4-0.8,0.6-1.4,0.7c-0.3,0.1-0.6,0.1-1,0.1c-0.9,0-1.7-0.3-2.3-1c-0.6-0.7-0.9-1.6-0.9-2.8
			c0-1.2,0.3-2.1,1-2.9c0.6-0.7,1.5-1.1,2.5-1.1C36.4,385.6,36.9,385.7,37.4,386z M37.8,388.9c0-0.5-0.2-1-0.3-1.3
			c-0.3-0.6-0.9-0.9-1.7-0.9c-0.6,0-1,0.2-1.4,0.6c-0.4,0.4-0.6,0.9-0.6,1.6H37.8z"/>
		<path class="st7" d="M41,385.8h1.2v1c0.3-0.4,0.6-0.6,0.8-0.8c0.4-0.3,0.9-0.4,1.4-0.4c0.6,0,1.1,0.1,1.4,0.4
			c0.2,0.2,0.4,0.4,0.5,0.7c0.3-0.4,0.6-0.7,1-0.9c0.4-0.2,0.8-0.3,1.2-0.3c1,0,1.7,0.4,2,1.1c0.2,0.4,0.3,0.9,0.3,1.5v4.9h-1.3V388
			c0-0.5-0.1-0.8-0.4-1c-0.2-0.2-0.5-0.3-0.9-0.3c-0.5,0-0.9,0.2-1.2,0.5c-0.3,0.3-0.5,0.9-0.5,1.6v4.3h-1.3v-4.8
			c0-0.5-0.1-0.9-0.2-1.1c-0.2-0.3-0.5-0.5-1-0.5c-0.5,0-0.9,0.2-1.3,0.5c-0.4,0.4-0.6,1-0.6,2v3.9H41V385.8z"/>
		<path class="st7" d="M57.7,386.2v-0.9c0.9-0.1,1.5-0.2,1.9-0.4c0.4-0.2,0.6-0.7,0.8-1.4h1v9.7H60v-6.9H57.7z"/>
	</g>
	<g>
		<path d="M159.5,330.1h4c1.4,0,2.4,0.5,3.2,1.5c0.7,0.9,1,2,1,3.4c0,1.1-0.2,2-0.6,2.9c-0.7,1.5-1.9,2.3-3.6,2.3h-4V330.1z
			 M163.2,338.9c0.4,0,0.8,0,1.1-0.1c0.5-0.2,0.9-0.5,1.3-1c0.3-0.4,0.5-0.9,0.6-1.6c0.1-0.4,0.1-0.7,0.1-1.1c0-1.2-0.2-2.2-0.7-2.9
			c-0.5-0.7-1.3-1-2.3-1h-2.4v7.7H163.2z"/>
		<path d="M173.6,335.7c0.3,0,0.5-0.2,0.6-0.4c0.1-0.1,0.1-0.3,0.1-0.5c0-0.4-0.1-0.7-0.4-0.9s-0.7-0.3-1.3-0.3
			c-0.6,0-1.1,0.2-1.4,0.5c-0.2,0.2-0.2,0.5-0.3,0.9h-1.1c0-0.9,0.3-1.5,0.9-1.9s1.2-0.5,2-0.5c0.9,0,1.6,0.2,2.1,0.5
			c0.5,0.3,0.8,0.8,0.8,1.5v4.2c0,0.1,0,0.2,0.1,0.3c0.1,0.1,0.2,0.1,0.3,0.1c0.1,0,0.1,0,0.2,0s0.1,0,0.2,0v0.9
			c-0.2,0.1-0.3,0.1-0.4,0.1c-0.1,0-0.2,0-0.4,0c-0.4,0-0.7-0.2-0.9-0.5c-0.1-0.2-0.2-0.4-0.2-0.7c-0.3,0.3-0.6,0.6-1.1,0.9
			c-0.5,0.2-1,0.4-1.6,0.4c-0.7,0-1.2-0.2-1.7-0.6c-0.4-0.4-0.6-0.9-0.6-1.5c0-0.7,0.2-1.2,0.6-1.6s1-0.6,1.7-0.7L173.6,335.7z
			 M171,339c0.3,0.2,0.6,0.3,0.9,0.3c0.4,0,0.9-0.1,1.3-0.3c0.7-0.3,1-0.9,1-1.6v-1c-0.2,0.1-0.3,0.2-0.6,0.2
			c-0.2,0.1-0.5,0.1-0.7,0.1l-0.7,0.1c-0.4,0.1-0.8,0.2-1,0.3c-0.4,0.2-0.6,0.6-0.6,1C170.6,338.5,170.8,338.8,171,339z"/>
		<path d="M178.1,330.7h1.2v2h1.2v1h-1.2v4.8c0,0.3,0.1,0.4,0.3,0.5c0.1,0.1,0.3,0.1,0.5,0.1c0.1,0,0.1,0,0.2,0s0.1,0,0.2,0v1
			c-0.1,0-0.3,0.1-0.4,0.1c-0.2,0-0.3,0-0.5,0c-0.6,0-1-0.1-1.2-0.4s-0.3-0.7-0.3-1.1v-4.8h-1v-1h1V330.7z"/>
		<path d="M186,335.7c0.3,0,0.5-0.2,0.6-0.4c0.1-0.1,0.1-0.3,0.1-0.5c0-0.4-0.1-0.7-0.4-0.9s-0.7-0.3-1.3-0.3
			c-0.6,0-1.1,0.2-1.4,0.5c-0.2,0.2-0.2,0.5-0.3,0.9h-1.1c0-0.9,0.3-1.5,0.9-1.9c0.6-0.4,1.2-0.5,2-0.5c0.9,0,1.6,0.2,2.1,0.5
			c0.5,0.3,0.8,0.8,0.8,1.5v4.2c0,0.1,0,0.2,0.1,0.3c0.1,0.1,0.2,0.1,0.3,0.1c0.1,0,0.1,0,0.2,0s0.1,0,0.2,0v0.9
			c-0.2,0.1-0.3,0.1-0.4,0.1c-0.1,0-0.2,0-0.4,0c-0.4,0-0.7-0.2-0.9-0.5c-0.1-0.2-0.2-0.4-0.2-0.7c-0.2,0.3-0.6,0.6-1.1,0.9
			c-0.5,0.2-1,0.4-1.6,0.4c-0.7,0-1.2-0.2-1.7-0.6c-0.4-0.4-0.6-0.9-0.6-1.5c0-0.7,0.2-1.2,0.6-1.6s1-0.6,1.7-0.7L186,335.7z
			 M183.4,339c0.3,0.2,0.6,0.3,0.9,0.3c0.4,0,0.9-0.1,1.3-0.3c0.7-0.3,1-0.9,1-1.6v-1c-0.2,0.1-0.3,0.2-0.6,0.2
			c-0.2,0.1-0.5,0.1-0.7,0.1l-0.7,0.1c-0.4,0.1-0.8,0.2-1,0.3c-0.4,0.2-0.6,0.6-0.6,1C183,338.5,183.1,338.8,183.4,339z"/>
	</g>
	<g>
		<path d="M92.7,356.4l2.9,8.6l2.9-8.6h1.5l-3.7,10h-1.4l-3.7-10H92.7z"/>
		<path d="M104.3,362c0.3,0,0.5-0.2,0.6-0.4c0.1-0.1,0.1-0.3,0.1-0.5c0-0.4-0.1-0.7-0.4-0.9c-0.3-0.2-0.7-0.3-1.3-0.3
			c-0.6,0-1.1,0.2-1.4,0.5c-0.2,0.2-0.2,0.5-0.3,0.9h-1.1c0-0.9,0.3-1.5,0.9-1.9c0.6-0.4,1.2-0.5,2-0.5c0.9,0,1.6,0.2,2.1,0.5
			c0.5,0.3,0.8,0.8,0.8,1.5v4.2c0,0.1,0,0.2,0.1,0.3c0.1,0.1,0.2,0.1,0.3,0.1c0.1,0,0.1,0,0.2,0s0.1,0,0.2,0v0.9
			c-0.2,0.1-0.3,0.1-0.4,0.1s-0.2,0-0.4,0c-0.4,0-0.7-0.2-0.9-0.5c-0.1-0.2-0.2-0.4-0.2-0.7c-0.3,0.3-0.6,0.6-1.1,0.9
			c-0.5,0.2-1,0.4-1.6,0.4c-0.7,0-1.2-0.2-1.7-0.6c-0.4-0.4-0.6-0.9-0.6-1.5c0-0.7,0.2-1.2,0.6-1.6s1-0.6,1.7-0.7L104.3,362z
			 M101.7,365.3c0.3,0.2,0.6,0.3,0.9,0.3c0.4,0,0.9-0.1,1.3-0.3c0.7-0.3,1-0.9,1-1.6v-1c-0.2,0.1-0.3,0.2-0.6,0.2
			c-0.2,0.1-0.5,0.1-0.7,0.1l-0.7,0.1c-0.4,0.1-0.8,0.2-1,0.3c-0.4,0.2-0.6,0.6-0.6,1C101.3,364.8,101.5,365.1,101.7,365.3z"/>
		<path d="M108.6,359.1h1.2v1.3c0.1-0.2,0.3-0.5,0.7-0.9c0.4-0.4,0.8-0.5,1.3-0.5c0,0,0.1,0,0.1,0c0.1,0,0.1,0,0.3,0v1.3
			c-0.1,0-0.1,0-0.2,0c-0.1,0-0.1,0-0.2,0c-0.6,0-1.1,0.2-1.4,0.6c-0.3,0.4-0.5,0.9-0.5,1.4v4.2h-1.2V359.1z"/>
		<path d="M113.5,356.4h1.3v1.4h-1.3V356.4z M113.5,359.1h1.3v7.3h-1.3V359.1z"/>
		<path d="M120.9,362c0.3,0,0.5-0.2,0.6-0.4c0.1-0.1,0.1-0.3,0.1-0.5c0-0.4-0.1-0.7-0.4-0.9c-0.3-0.2-0.7-0.3-1.3-0.3
			c-0.6,0-1.1,0.2-1.4,0.5c-0.2,0.2-0.2,0.5-0.3,0.9H117c0-0.9,0.3-1.5,0.9-1.9c0.6-0.4,1.2-0.5,2-0.5c0.9,0,1.6,0.2,2.1,0.5
			c0.5,0.3,0.8,0.8,0.8,1.5v4.2c0,0.1,0,0.2,0.1,0.3c0.1,0.1,0.2,0.1,0.3,0.1c0.1,0,0.1,0,0.2,0s0.1,0,0.2,0v0.9
			c-0.2,0.1-0.3,0.1-0.4,0.1s-0.2,0-0.4,0c-0.4,0-0.7-0.2-0.9-0.5c-0.1-0.2-0.2-0.4-0.2-0.7c-0.3,0.3-0.6,0.6-1.1,0.9
			c-0.5,0.2-1,0.4-1.6,0.4c-0.7,0-1.2-0.2-1.7-0.6c-0.4-0.4-0.6-0.9-0.6-1.5c0-0.7,0.2-1.2,0.6-1.6s1-0.6,1.7-0.7L120.9,362z
			 M118.3,365.3c0.3,0.2,0.6,0.3,0.9,0.3c0.4,0,0.9-0.1,1.3-0.3c0.7-0.3,1-0.9,1-1.6v-1c-0.2,0.1-0.3,0.2-0.6,0.2
			c-0.2,0.1-0.5,0.1-0.7,0.1l-0.7,0.1c-0.4,0.1-0.8,0.2-1,0.3c-0.4,0.2-0.6,0.6-0.6,1C117.9,364.8,118.1,365.1,118.3,365.3z"/>
		<path d="M125,356.4h1.2v3.6c0.3-0.4,0.6-0.6,1-0.8c0.4-0.2,0.8-0.3,1.2-0.3c0.9,0,1.7,0.3,2.2,0.9c0.6,0.6,0.9,1.6,0.9,2.8
			c0,1.2-0.3,2.1-0.8,2.9c-0.6,0.8-1.3,1.1-2.3,1.1c-0.6,0-1-0.1-1.4-0.4c-0.2-0.2-0.5-0.4-0.7-0.8v0.9H125V356.4z M129.7,364.8
			c0.3-0.5,0.5-1.2,0.5-2.1c0-0.8-0.2-1.4-0.5-1.9c-0.3-0.5-0.8-0.8-1.5-0.8c-0.6,0-1.1,0.2-1.5,0.6c-0.4,0.4-0.6,1.1-0.6,2.1
			c0,0.7,0.1,1.2,0.3,1.7c0.3,0.8,0.9,1.2,1.8,1.2C128.9,365.6,129.4,365.3,129.7,364.8z"/>
		<path d="M133.3,356.4h1.2v10h-1.2V356.4z"/>
		<path d="M141.3,359.3c0.5,0.2,0.9,0.6,1.1,0.9c0.2,0.4,0.4,0.8,0.5,1.3c0.1,0.3,0.1,0.9,0.1,1.6h-5.3c0,0.7,0.2,1.3,0.5,1.8
			c0.3,0.5,0.8,0.7,1.5,0.7c0.6,0,1.1-0.2,1.5-0.6c0.2-0.2,0.4-0.5,0.5-0.9h1.2c0,0.3-0.1,0.6-0.3,0.9c-0.2,0.3-0.4,0.6-0.6,0.8
			c-0.4,0.4-0.8,0.6-1.4,0.7c-0.3,0.1-0.6,0.1-1,0.1c-0.9,0-1.7-0.3-2.3-1c-0.6-0.7-0.9-1.6-0.9-2.8c0-1.2,0.3-2.1,1-2.9
			c0.6-0.7,1.5-1.1,2.5-1.1C140.3,358.9,140.8,359.1,141.3,359.3z M141.7,362.2c0-0.5-0.2-1-0.3-1.3c-0.3-0.6-0.9-0.9-1.7-0.9
			c-0.6,0-1,0.2-1.4,0.6c-0.4,0.4-0.6,0.9-0.6,1.6H141.7z"/>
		<path d="M151.4,356.4h1.5l3.6,10h-1.5l-1-3h-3.9l-1.1,3h-1.4L151.4,356.4z M153.7,362.3l-1.5-4.4l-1.6,4.4H153.7z"/>
	</g>
	<g>
		<path d="M92.6,390.6c0.1,0.7,0.4,1.2,1,1.5c0.3,0.1,0.6,0.2,1,0.2c0.7,0,1.3-0.2,1.6-0.7s0.5-1,0.5-1.5c0-0.7-0.2-1.2-0.6-1.6
			c-0.4-0.4-0.9-0.6-1.5-0.6c-0.4,0-0.8,0.1-1.1,0.2s-0.6,0.4-0.8,0.7l-1.1-0.1l0.7-5.3h5.1v1.2h-4.2l-0.4,2.7
			c0.2-0.2,0.4-0.3,0.6-0.4c0.4-0.2,0.8-0.2,1.3-0.2c0.9,0,1.7,0.3,2.3,0.9c0.6,0.6,0.9,1.3,0.9,2.2c0,0.9-0.3,1.7-0.9,2.4
			c-0.6,0.7-1.5,1.1-2.7,1.1c-0.8,0-1.5-0.2-2.1-0.7c-0.6-0.4-1-1.1-1-2.1H92.6z"/>
		<path d="M105.5,384.9c0.4,0.8,0.7,1.9,0.7,3.3c0,1.3-0.2,2.4-0.6,3.3c-0.6,1.2-1.5,1.9-2.8,1.9c-1.2,0-2.1-0.5-2.6-1.5
			c-0.5-0.9-0.7-2-0.7-3.4c0-1.1,0.1-2.1,0.4-2.9c0.5-1.5,1.5-2.2,2.9-2.2C104,383.3,104.9,383.8,105.5,384.9z M104.3,391.4
			c0.4-0.6,0.6-1.6,0.6-3.2c0-1.1-0.1-2-0.4-2.7c-0.3-0.7-0.8-1.1-1.6-1.1c-0.7,0-1.3,0.3-1.6,1c-0.3,0.7-0.5,1.7-0.5,3
			c0,1,0.1,1.8,0.3,2.4c0.3,0.9,0.9,1.4,1.7,1.4C103.4,392.2,103.9,392,104.3,391.4z"/>
	</g>
	<g>
		<path d="M175.3,386.2v-0.9c0.9-0.1,1.5-0.2,1.9-0.4c0.4-0.2,0.6-0.7,0.8-1.4h1v9.7h-1.3v-6.9H175.3z"/>
		<path d="M188.7,384.9c0.4,0.8,0.7,1.9,0.7,3.3c0,1.3-0.2,2.4-0.6,3.3c-0.6,1.2-1.5,1.9-2.8,1.9c-1.2,0-2.1-0.5-2.6-1.5
			c-0.5-0.9-0.7-2-0.7-3.4c0-1.1,0.1-2.1,0.4-2.9c0.5-1.5,1.5-2.2,2.9-2.2C187.2,383.3,188.1,383.8,188.7,384.9z M187.4,391.4
			c0.4-0.6,0.6-1.6,0.6-3.2c0-1.1-0.1-2-0.4-2.7c-0.3-0.7-0.8-1.1-1.6-1.1c-0.7,0-1.3,0.3-1.6,1c-0.3,0.7-0.5,1.7-0.5,3
			c0,1,0.1,1.8,0.3,2.4c0.3,0.9,0.9,1.4,1.7,1.4C186.5,392.2,187.1,392,187.4,391.4z"/>
		<path d="M196.8,384.9c0.4,0.8,0.7,1.9,0.7,3.3c0,1.3-0.2,2.4-0.6,3.3c-0.6,1.2-1.5,1.9-2.8,1.9c-1.2,0-2.1-0.5-2.6-1.5
			c-0.5-0.9-0.7-2-0.7-3.4c0-1.1,0.1-2.1,0.4-2.9c0.5-1.5,1.5-2.2,2.9-2.2C195.3,383.3,196.2,383.8,196.8,384.9z M195.6,391.4
			c0.4-0.6,0.6-1.6,0.6-3.2c0-1.1-0.1-2-0.4-2.7s-0.8-1.1-1.6-1.1c-0.7,0-1.3,0.3-1.6,1c-0.3,0.7-0.5,1.7-0.5,3c0,1,0.1,1.8,0.3,2.4
			c0.3,0.9,0.9,1.4,1.7,1.4C194.7,392.2,195.2,392,195.6,391.4z"/>
	</g>
	<g>
		<path d="M258,390.9c0.3-0.6,0.9-1.2,1.8-1.7l1.3-0.8c0.6-0.3,1-0.6,1.2-0.9c0.4-0.4,0.6-0.8,0.6-1.3c0-0.6-0.2-1-0.5-1.4
			c-0.3-0.3-0.8-0.5-1.4-0.5c-0.8,0-1.4,0.3-1.8,1c-0.2,0.3-0.3,0.8-0.3,1.4h-1.3c0-0.9,0.2-1.5,0.5-2.1c0.5-0.9,1.5-1.4,2.8-1.4
			c1.1,0,1.9,0.3,2.5,0.9c0.5,0.6,0.8,1.3,0.8,2c0,0.8-0.3,1.5-0.8,2c-0.3,0.3-0.9,0.7-1.7,1.2l-0.9,0.5c-0.4,0.2-0.8,0.5-1.1,0.7
			c-0.5,0.4-0.7,0.8-0.9,1.3h5.3v1.2h-6.7C257.5,392.3,257.7,391.5,258,390.9z"/>
		<path d="M266.3,391.6h1.4v1.5h-1.4V391.6z"/>
		<path d="M275.9,384.9c0.4,0.8,0.7,1.9,0.7,3.3c0,1.3-0.2,2.4-0.6,3.3c-0.6,1.2-1.5,1.9-2.8,1.9c-1.2,0-2.1-0.5-2.6-1.5
			c-0.5-0.9-0.7-2-0.7-3.4c0-1.1,0.1-2.1,0.4-2.9c0.5-1.5,1.5-2.2,2.9-2.2C274.4,383.3,275.3,383.8,275.9,384.9z M274.7,391.4
			c0.4-0.6,0.6-1.6,0.6-3.2c0-1.1-0.1-2-0.4-2.7s-0.8-1.1-1.6-1.1c-0.7,0-1.3,0.3-1.6,1c-0.3,0.7-0.5,1.7-0.5,3c0,1,0.1,1.8,0.3,2.4
			c0.3,0.9,0.9,1.4,1.7,1.4C273.8,392.2,274.3,392,274.7,391.4z"/>
	</g>
	<g>
		<path d="M263.5,410.9c0.4,0.8,0.7,1.9,0.7,3.3c0,1.3-0.2,2.4-0.6,3.3c-0.6,1.2-1.5,1.9-2.8,1.9c-1.2,0-2.1-0.5-2.6-1.5
			c-0.5-0.9-0.7-2-0.7-3.4c0-1.1,0.1-2.1,0.4-2.9c0.5-1.5,1.5-2.2,2.9-2.2C262.1,409.3,263,409.8,263.5,410.9z M262.3,417.4
			c0.4-0.6,0.6-1.6,0.6-3.2c0-1.1-0.1-2-0.4-2.7c-0.3-0.7-0.8-1.1-1.6-1.1c-0.7,0-1.3,0.3-1.6,1c-0.3,0.7-0.5,1.7-0.5,3
			c0,1,0.1,1.8,0.3,2.4c0.3,0.9,0.9,1.4,1.7,1.4C261.4,418.2,261.9,418,262.3,417.4z"/>
		<path d="M266.3,417.6h1.4v1.5h-1.4V417.6z"/>
		<path d="M271.1,416.6c0.1,0.7,0.4,1.2,1,1.5c0.3,0.1,0.6,0.2,1,0.2c0.7,0,1.3-0.2,1.6-0.7s0.5-1,0.5-1.5c0-0.7-0.2-1.2-0.6-1.6
			c-0.4-0.4-0.9-0.6-1.5-0.6c-0.4,0-0.8,0.1-1.1,0.2c-0.3,0.2-0.6,0.4-0.8,0.7l-1.1-0.1l0.7-5.3h5.1v1.2h-4.2l-0.4,2.7
			c0.2-0.2,0.4-0.3,0.6-0.4c0.4-0.2,0.8-0.2,1.3-0.2c0.9,0,1.7,0.3,2.3,0.9c0.6,0.6,0.9,1.3,0.9,2.2c0,0.9-0.3,1.7-0.9,2.4
			c-0.6,0.7-1.5,1.1-2.7,1.1c-0.8,0-1.5-0.2-2.1-0.7c-0.6-0.4-1-1.1-1-2.1H271.1z"/>
	</g>
	<g>
		<path d="M175.3,412.2v-0.9c0.9-0.1,1.5-0.2,1.9-0.4c0.4-0.2,0.6-0.7,0.8-1.4h1v9.7h-1.3v-6.9H175.3z"/>
		<path d="M182.4,412.2v-0.9c0.9-0.1,1.5-0.2,1.9-0.4c0.4-0.2,0.6-0.7,0.8-1.4h1v9.7h-1.3v-6.9H182.4z"/>
		<path d="M191,416.6c0.1,0.7,0.4,1.2,1,1.5c0.3,0.1,0.6,0.2,1,0.2c0.7,0,1.3-0.2,1.6-0.7c0.4-0.5,0.5-1,0.5-1.5
			c0-0.7-0.2-1.2-0.6-1.6c-0.4-0.4-0.9-0.6-1.5-0.6c-0.4,0-0.8,0.1-1.1,0.2c-0.3,0.2-0.6,0.4-0.8,0.7l-1.1-0.1l0.7-5.3h5.1v1.2h-4.2
			l-0.4,2.7c0.2-0.2,0.4-0.3,0.6-0.4c0.4-0.2,0.8-0.2,1.3-0.2c0.9,0,1.7,0.3,2.3,0.9c0.6,0.6,0.9,1.3,0.9,2.2c0,0.9-0.3,1.7-0.9,2.4
			c-0.6,0.7-1.5,1.1-2.7,1.1c-0.8,0-1.5-0.2-2.1-0.7c-0.6-0.4-1-1.1-1-2.1H191z"/>
	</g>
	<g>
		<path d="M92,418.4c-0.5-0.6-0.8-1.4-0.8-2.3h1.3c0.1,0.6,0.2,1.1,0.4,1.4c0.3,0.5,0.9,0.8,1.7,0.8c0.6,0,1.2-0.2,1.6-0.5
			c0.4-0.3,0.6-0.8,0.6-1.3c0-0.7-0.2-1.1-0.6-1.4c-0.4-0.3-1-0.4-1.7-0.4c-0.1,0-0.2,0-0.2,0c-0.1,0-0.2,0-0.3,0v-1.1
			c0.1,0,0.2,0,0.3,0c0.1,0,0.2,0,0.3,0c0.5,0,0.8-0.1,1.1-0.2c0.5-0.3,0.8-0.7,0.8-1.4c0-0.5-0.2-0.9-0.5-1.1
			c-0.3-0.3-0.7-0.4-1.2-0.4c-0.8,0-1.4,0.3-1.7,0.8c-0.2,0.3-0.3,0.7-0.3,1.3h-1.2c0-0.7,0.1-1.3,0.4-1.9c0.5-0.9,1.4-1.4,2.6-1.4
			c1,0,1.8,0.2,2.3,0.7s0.8,1.1,0.8,1.9c0,0.6-0.2,1.1-0.5,1.5c-0.2,0.2-0.5,0.4-0.8,0.5c0.5,0.1,0.9,0.4,1.2,0.8s0.4,0.9,0.4,1.5
			c0,0.9-0.3,1.7-0.9,2.3s-1.5,0.9-2.6,0.9C93.3,419.4,92.5,419,92,418.4z"/>
		<path d="M105.5,410.9c0.4,0.8,0.7,1.9,0.7,3.3c0,1.3-0.2,2.4-0.6,3.3c-0.6,1.2-1.5,1.9-2.8,1.9c-1.2,0-2.1-0.5-2.6-1.5
			c-0.5-0.9-0.7-2-0.7-3.4c0-1.1,0.1-2.1,0.4-2.9c0.5-1.5,1.5-2.2,2.9-2.2C104,409.3,104.9,409.8,105.5,410.9z M104.3,417.4
			c0.4-0.6,0.6-1.6,0.6-3.2c0-1.1-0.1-2-0.4-2.7c-0.3-0.7-0.8-1.1-1.6-1.1c-0.7,0-1.3,0.3-1.6,1c-0.3,0.7-0.5,1.7-0.5,3
			c0,1,0.1,1.8,0.3,2.4c0.3,0.9,0.9,1.4,1.7,1.4C103.4,418.2,103.9,418,104.3,417.4z"/>
	</g>
	<g>
		<path d="M174.9,356.4l2.9,8.6l2.9-8.6h1.5l-3.7,10H177l-3.7-10H174.9z"/>
		<path d="M186.5,362c0.3,0,0.5-0.2,0.6-0.4c0.1-0.1,0.1-0.3,0.1-0.5c0-0.4-0.1-0.7-0.4-0.9c-0.3-0.2-0.7-0.3-1.3-0.3
			c-0.6,0-1.1,0.2-1.4,0.5c-0.2,0.2-0.2,0.5-0.3,0.9h-1.1c0-0.9,0.3-1.5,0.9-1.9c0.6-0.4,1.2-0.5,2-0.5c0.9,0,1.6,0.2,2.1,0.5
			c0.5,0.3,0.8,0.8,0.8,1.5v4.2c0,0.1,0,0.2,0.1,0.3c0.1,0.1,0.2,0.1,0.3,0.1c0.1,0,0.1,0,0.2,0s0.1,0,0.2,0v0.9
			c-0.2,0.1-0.3,0.1-0.4,0.1c-0.1,0-0.2,0-0.4,0c-0.4,0-0.7-0.2-0.9-0.5c-0.1-0.2-0.2-0.4-0.2-0.7c-0.3,0.3-0.6,0.6-1.1,0.9
			c-0.5,0.2-1,0.4-1.6,0.4c-0.7,0-1.2-0.2-1.7-0.6c-0.4-0.4-0.6-0.9-0.6-1.5c0-0.7,0.2-1.2,0.6-1.6s1-0.6,1.7-0.7L186.5,362z
			 M183.9,365.3c0.3,0.2,0.6,0.3,0.9,0.3c0.4,0,0.9-0.1,1.3-0.3c0.7-0.3,1-0.9,1-1.6v-1c-0.2,0.1-0.3,0.2-0.6,0.2
			c-0.2,0.1-0.5,0.1-0.7,0.1l-0.7,0.1c-0.4,0.1-0.8,0.2-1,0.3c-0.4,0.2-0.6,0.6-0.6,1C183.5,364.8,183.6,365.1,183.9,365.3z"/>
		<path d="M190.7,359.1h1.2v1.3c0.1-0.2,0.3-0.5,0.7-0.9c0.4-0.4,0.8-0.5,1.3-0.5c0,0,0.1,0,0.1,0c0.1,0,0.1,0,0.3,0v1.3
			c-0.1,0-0.1,0-0.2,0c-0.1,0-0.1,0-0.2,0c-0.6,0-1.1,0.2-1.4,0.6c-0.3,0.4-0.5,0.9-0.5,1.4v4.2h-1.2V359.1z"/>
		<path d="M195.7,356.4h1.3v1.4h-1.3V356.4z M195.7,359.1h1.3v7.3h-1.3V359.1z"/>
		<path d="M203.1,362c0.3,0,0.5-0.2,0.6-0.4c0.1-0.1,0.1-0.3,0.1-0.5c0-0.4-0.1-0.7-0.4-0.9c-0.3-0.2-0.7-0.3-1.3-0.3
			c-0.6,0-1.1,0.2-1.4,0.5c-0.2,0.2-0.2,0.5-0.3,0.9h-1.1c0-0.9,0.3-1.5,0.9-1.9c0.6-0.4,1.2-0.5,2-0.5c0.9,0,1.6,0.2,2.1,0.5
			c0.5,0.3,0.8,0.8,0.8,1.5v4.2c0,0.1,0,0.2,0.1,0.3c0.1,0.1,0.2,0.1,0.3,0.1c0.1,0,0.1,0,0.2,0s0.1,0,0.2,0v0.9
			c-0.2,0.1-0.3,0.1-0.4,0.1c-0.1,0-0.2,0-0.4,0c-0.4,0-0.7-0.2-0.9-0.5c-0.1-0.2-0.2-0.4-0.2-0.7c-0.3,0.3-0.6,0.6-1.1,0.9
			c-0.5,0.2-1,0.4-1.6,0.4c-0.7,0-1.2-0.2-1.7-0.6c-0.4-0.4-0.6-0.9-0.6-1.5c0-0.7,0.2-1.2,0.6-1.6s1-0.6,1.7-0.7L203.1,362z
			 M200.5,365.3c0.3,0.2,0.6,0.3,0.9,0.3c0.4,0,0.9-0.1,1.3-0.3c0.7-0.3,1-0.9,1-1.6v-1c-0.2,0.1-0.3,0.2-0.6,0.2
			c-0.2,0.1-0.5,0.1-0.7,0.1l-0.7,0.1c-0.4,0.1-0.8,0.2-1,0.3c-0.4,0.2-0.6,0.6-0.6,1C200.1,364.8,200.2,365.1,200.5,365.3z"/>
		<path d="M207.2,356.4h1.2v3.6c0.3-0.4,0.6-0.6,1-0.8s0.8-0.3,1.2-0.3c0.9,0,1.7,0.3,2.2,0.9c0.6,0.6,0.9,1.6,0.9,2.8
			c0,1.2-0.3,2.1-0.8,2.9s-1.3,1.1-2.3,1.1c-0.6,0-1-0.1-1.4-0.4c-0.2-0.2-0.5-0.4-0.7-0.8v0.9h-1.1V356.4z M211.9,364.8
			c0.3-0.5,0.5-1.2,0.5-2.1c0-0.8-0.2-1.4-0.5-1.9c-0.3-0.5-0.8-0.8-1.5-0.8c-0.6,0-1.1,0.2-1.5,0.6c-0.4,0.4-0.6,1.1-0.6,2.1
			c0,0.7,0.1,1.2,0.3,1.7c0.3,0.8,0.9,1.2,1.8,1.2C211.1,365.6,211.6,365.3,211.9,364.8z"/>
		<path d="M215.5,356.4h1.2v10h-1.2V356.4z"/>
		<path d="M223.4,359.3c0.5,0.2,0.9,0.6,1.1,0.9c0.2,0.4,0.4,0.8,0.5,1.3c0.1,0.3,0.1,0.9,0.1,1.6h-5.3c0,0.7,0.2,1.3,0.5,1.8
			s0.8,0.7,1.5,0.7c0.6,0,1.1-0.2,1.5-0.6c0.2-0.2,0.4-0.5,0.5-0.9h1.2c0,0.3-0.1,0.6-0.3,0.9c-0.2,0.3-0.4,0.6-0.6,0.8
			c-0.4,0.4-0.8,0.6-1.4,0.7c-0.3,0.1-0.6,0.1-1,0.1c-0.9,0-1.7-0.3-2.3-1s-0.9-1.6-0.9-2.8c0-1.2,0.3-2.1,1-2.9
			c0.6-0.7,1.5-1.1,2.5-1.1C222.4,358.9,222.9,359.1,223.4,359.3z M223.9,362.2c0-0.5-0.2-1-0.3-1.3c-0.3-0.6-0.9-0.9-1.7-0.9
			c-0.6,0-1,0.2-1.4,0.6c-0.4,0.4-0.6,0.9-0.6,1.6H223.9z"/>
		<path d="M231.4,356.4h4.3c1.2,0,2,0.4,2.5,1.1c0.3,0.4,0.4,0.9,0.4,1.4c0,0.6-0.2,1.2-0.5,1.6c-0.2,0.2-0.5,0.4-0.8,0.6
			c0.5,0.2,0.9,0.4,1.2,0.7c0.5,0.4,0.7,1,0.7,1.8c0,0.6-0.2,1.2-0.6,1.8c-0.6,0.8-1.6,1.2-2.9,1.2h-4.3V356.4z M235.2,360.6
			c0.6,0,1-0.1,1.4-0.2c0.5-0.2,0.8-0.7,0.8-1.4c0-0.7-0.3-1.1-0.8-1.3c-0.3-0.1-0.8-0.2-1.4-0.2h-2.5v3.1H235.2z M235.7,365.3
			c0.8,0,1.4-0.2,1.8-0.7c0.2-0.3,0.3-0.7,0.3-1.1c0-0.7-0.3-1.2-1-1.5c-0.3-0.1-0.8-0.2-1.4-0.2h-2.7v3.5H235.7z"/>
	</g>
	<g>
		<path d="M257.9,356.4l2.9,8.6l2.9-8.6h1.5l-3.7,10H260l-3.7-10H257.9z"/>
		<path d="M269.5,362c0.3,0,0.5-0.2,0.6-0.4c0.1-0.1,0.1-0.3,0.1-0.5c0-0.4-0.1-0.7-0.4-0.9c-0.3-0.2-0.7-0.3-1.3-0.3
			c-0.6,0-1.1,0.2-1.4,0.5c-0.2,0.2-0.2,0.5-0.3,0.9h-1.1c0-0.9,0.3-1.5,0.9-1.9c0.6-0.4,1.2-0.5,2-0.5c0.9,0,1.6,0.2,2.1,0.5
			c0.5,0.3,0.8,0.8,0.8,1.5v4.2c0,0.1,0,0.2,0.1,0.3c0.1,0.1,0.2,0.1,0.3,0.1c0.1,0,0.1,0,0.2,0s0.1,0,0.2,0v0.9
			c-0.2,0.1-0.3,0.1-0.4,0.1c-0.1,0-0.2,0-0.4,0c-0.4,0-0.7-0.2-0.9-0.5c-0.1-0.2-0.2-0.4-0.2-0.7c-0.3,0.3-0.6,0.6-1.1,0.9
			c-0.5,0.2-1,0.4-1.6,0.4c-0.7,0-1.2-0.2-1.7-0.6s-0.6-0.9-0.6-1.5c0-0.7,0.2-1.2,0.6-1.6c0.4-0.4,1-0.6,1.7-0.7L269.5,362z
			 M266.9,365.3c0.3,0.2,0.6,0.3,0.9,0.3c0.4,0,0.9-0.1,1.3-0.3c0.7-0.3,1-0.9,1-1.6v-1c-0.2,0.1-0.3,0.2-0.6,0.2
			c-0.2,0.1-0.5,0.1-0.7,0.1l-0.7,0.1c-0.4,0.1-0.8,0.2-1,0.3c-0.4,0.2-0.6,0.6-0.6,1C266.5,364.8,266.6,365.1,266.9,365.3z"/>
		<path d="M273.7,359.1h1.2v1.3c0.1-0.2,0.3-0.5,0.7-0.9c0.4-0.4,0.8-0.5,1.3-0.5c0,0,0.1,0,0.1,0c0.1,0,0.1,0,0.3,0v1.3
			c-0.1,0-0.1,0-0.2,0c-0.1,0-0.1,0-0.2,0c-0.6,0-1.1,0.2-1.4,0.6c-0.3,0.4-0.5,0.9-0.5,1.4v4.2h-1.2V359.1z"/>
		<path d="M278.7,356.4h1.3v1.4h-1.3V356.4z M278.7,359.1h1.3v7.3h-1.3V359.1z"/>
		<path d="M286.1,362c0.3,0,0.5-0.2,0.6-0.4c0.1-0.1,0.1-0.3,0.1-0.5c0-0.4-0.1-0.7-0.4-0.9c-0.3-0.2-0.7-0.3-1.3-0.3
			c-0.6,0-1.1,0.2-1.4,0.5c-0.2,0.2-0.2,0.5-0.3,0.9h-1.1c0-0.9,0.3-1.5,0.9-1.9c0.6-0.4,1.2-0.5,2-0.5c0.9,0,1.6,0.2,2.1,0.5
			c0.5,0.3,0.8,0.8,0.8,1.5v4.2c0,0.1,0,0.2,0.1,0.3c0.1,0.1,0.2,0.1,0.3,0.1c0.1,0,0.1,0,0.2,0s0.1,0,0.2,0v0.9
			c-0.2,0.1-0.3,0.1-0.4,0.1c-0.1,0-0.2,0-0.4,0c-0.4,0-0.7-0.2-0.9-0.5c-0.1-0.2-0.2-0.4-0.2-0.7c-0.3,0.3-0.6,0.6-1.1,0.9
			c-0.5,0.2-1,0.4-1.6,0.4c-0.7,0-1.2-0.2-1.7-0.6s-0.6-0.9-0.6-1.5c0-0.7,0.2-1.2,0.6-1.6c0.4-0.4,1-0.6,1.7-0.7L286.1,362z
			 M283.5,365.3c0.3,0.2,0.6,0.3,0.9,0.3c0.4,0,0.9-0.1,1.3-0.3c0.7-0.3,1-0.9,1-1.6v-1c-0.2,0.1-0.3,0.2-0.6,0.2
			c-0.2,0.1-0.5,0.1-0.7,0.1l-0.7,0.1c-0.4,0.1-0.8,0.2-1,0.3c-0.4,0.2-0.6,0.6-0.6,1C283.1,364.8,283.2,365.1,283.5,365.3z"/>
		<path d="M290.2,356.4h1.2v3.6c0.3-0.4,0.6-0.6,1-0.8s0.8-0.3,1.2-0.3c0.9,0,1.7,0.3,2.2,0.9c0.6,0.6,0.9,1.6,0.9,2.8
			c0,1.2-0.3,2.1-0.8,2.9s-1.3,1.1-2.3,1.1c-0.6,0-1-0.1-1.4-0.4c-0.2-0.2-0.5-0.4-0.7-0.8v0.9h-1.1V356.4z M294.9,364.8
			c0.3-0.5,0.5-1.2,0.5-2.1c0-0.8-0.2-1.4-0.5-1.9c-0.3-0.5-0.8-0.8-1.5-0.8c-0.6,0-1.1,0.2-1.5,0.6c-0.4,0.4-0.6,1.1-0.6,2.1
			c0,0.7,0.1,1.2,0.3,1.7c0.3,0.8,0.9,1.2,1.8,1.2C294.1,365.6,294.6,365.3,294.9,364.8z"/>
		<path d="M298.5,356.4h1.2v10h-1.2V356.4z"/>
		<path d="M306.4,359.3c0.5,0.2,0.9,0.6,1.1,0.9c0.2,0.4,0.4,0.8,0.5,1.3c0.1,0.3,0.1,0.9,0.1,1.6h-5.3c0,0.7,0.2,1.3,0.5,1.8
			s0.8,0.7,1.5,0.7c0.6,0,1.1-0.2,1.5-0.6c0.2-0.2,0.4-0.5,0.5-0.9h1.2c0,0.3-0.1,0.6-0.3,0.9c-0.2,0.3-0.4,0.6-0.6,0.8
			c-0.4,0.4-0.8,0.6-1.4,0.7c-0.3,0.1-0.6,0.1-1,0.1c-0.9,0-1.7-0.3-2.3-1s-0.9-1.6-0.9-2.8c0-1.2,0.3-2.1,1-2.9
			c0.6-0.7,1.5-1.1,2.5-1.1C305.4,358.9,305.9,359.1,306.4,359.3z M306.9,362.2c0-0.5-0.2-1-0.3-1.3c-0.3-0.6-0.9-0.9-1.7-0.9
			c-0.6,0-1,0.2-1.4,0.6c-0.4,0.4-0.6,0.9-0.6,1.6H306.9z"/>
		<path d="M321.5,357.1c0.7,0.7,1.1,1.4,1.2,2.3h-1.3c-0.1-0.6-0.4-1.2-0.9-1.5c-0.4-0.4-1.1-0.6-1.9-0.6c-1,0-1.8,0.3-2.4,1
			c-0.6,0.7-0.9,1.8-0.9,3.2c0,1.2,0.3,2.1,0.8,2.9c0.5,0.7,1.3,1.1,2.4,1.1c1,0,1.7-0.4,2.2-1.2c0.3-0.4,0.5-0.9,0.6-1.6h1.3
			c-0.1,1.1-0.5,1.9-1.2,2.7c-0.8,0.9-1.9,1.3-3.2,1.3c-1.2,0-2.1-0.4-2.9-1.1c-1-0.9-1.5-2.4-1.5-4.3c0-1.5,0.4-2.7,1.2-3.6
			c0.8-1,2-1.5,3.5-1.5C319.9,356.1,320.8,356.5,321.5,357.1z"/>
	</g>
	<g>
		<path d="M24.5,61.8c0.4,0.5,0.6,1,0.6,1.5h-1c-0.1-0.3-0.2-0.6-0.3-0.8C23.4,62.2,23,62,22.5,62c-0.6,0-1.1,0.3-1.4,0.8
			s-0.5,1.3-0.6,2.3c0.2-0.4,0.5-0.6,0.9-0.8c0.3-0.2,0.7-0.2,1.1-0.2c0.7,0,1.3,0.2,1.8,0.7s0.8,1.1,0.8,2c0,0.8-0.2,1.4-0.7,2
			s-1.2,0.9-2.1,0.9c-0.8,0-1.5-0.3-2-0.9s-0.9-1.6-0.9-3c0-1,0.1-1.9,0.4-2.7c0.5-1.4,1.4-2.1,2.7-2.1
			C23.4,61.1,24.1,61.3,24.5,61.8z M23.7,68.2c0.3-0.4,0.4-0.8,0.4-1.3c0-0.4-0.1-0.8-0.4-1.2s-0.7-0.6-1.3-0.6
			c-0.5,0-0.9,0.2-1.2,0.5s-0.5,0.8-0.5,1.4c0,0.5,0.2,1,0.5,1.3s0.7,0.5,1.3,0.5C23,68.8,23.4,68.6,23.7,68.2z"/>
		<path d="M31.6,62.5c0.4,0.7,0.6,1.6,0.6,2.8c0,1.1-0.2,2.1-0.5,2.8c-0.5,1.1-1.3,1.6-2.4,1.6c-1,0-1.8-0.4-2.2-1.3
			c-0.4-0.7-0.6-1.7-0.6-2.9c0-1,0.1-1.8,0.4-2.5c0.5-1.3,1.3-1.9,2.5-1.9C30.3,61.1,31.1,61.6,31.6,62.5z M30.5,68
			c0.3-0.5,0.5-1.4,0.5-2.7c0-1-0.1-1.7-0.4-2.4c-0.2-0.6-0.7-0.9-1.4-0.9c-0.6,0-1.1,0.3-1.4,0.9c-0.3,0.6-0.4,1.4-0.4,2.6
			c0,0.9,0.1,1.5,0.3,2.1c0.3,0.8,0.8,1.2,1.4,1.2C29.8,68.8,30.2,68.5,30.5,68z"/>
	</g>
	<g>
		<path d="M146.5,63.6v-0.8c0.8-0.1,1.3-0.2,1.6-0.4s0.5-0.6,0.7-1.2h0.8v8.4h-1.1v-5.9H146.5z"/>
		<path d="M153.1,67.6c0.3-0.5,0.8-1,1.5-1.5l1.1-0.7c0.5-0.3,0.9-0.5,1.1-0.8c0.3-0.3,0.5-0.7,0.5-1.1c0-0.5-0.1-0.9-0.4-1.2
			s-0.7-0.4-1.2-0.4c-0.7,0-1.2,0.3-1.5,0.8c-0.1,0.3-0.2,0.7-0.2,1.2h-1.1c0-0.7,0.1-1.3,0.4-1.8c0.5-0.8,1.3-1.2,2.4-1.2
			c1,0,1.7,0.3,2.1,0.8s0.7,1.1,0.7,1.7c0,0.7-0.2,1.2-0.7,1.7c-0.3,0.3-0.8,0.6-1.5,1l-0.8,0.4c-0.4,0.2-0.7,0.4-0.9,0.6
			c-0.4,0.3-0.6,0.7-0.7,1.1h4.6v1h-5.8C152.7,68.8,152.9,68.1,153.1,67.6z"/>
		<path d="M164.9,62.5c0.4,0.7,0.6,1.6,0.6,2.8c0,1.1-0.2,2.1-0.5,2.8c-0.5,1.1-1.3,1.6-2.4,1.6c-1,0-1.8-0.4-2.2-1.3
			c-0.4-0.7-0.6-1.7-0.6-2.9c0-1,0.1-1.8,0.4-2.5c0.5-1.3,1.3-1.9,2.5-1.9C163.6,61.1,164.4,61.6,164.9,62.5z M163.8,68
			c0.3-0.5,0.5-1.4,0.5-2.7c0-1-0.1-1.7-0.4-2.4c-0.2-0.6-0.7-0.9-1.4-0.9c-0.6,0-1.1,0.3-1.4,0.9c-0.3,0.6-0.4,1.4-0.4,2.6
			c0,0.9,0.1,1.5,0.3,2.1c0.3,0.8,0.8,1.2,1.4,1.2C163.1,68.8,163.5,68.5,163.8,68z"/>
	</g>
	<g>
		<path d="M146.5,92.9v-0.8c0.8-0.1,1.3-0.2,1.6-0.4s0.5-0.6,0.7-1.2h0.8v8.4h-1.1v-5.9H146.5z"/>
		<path d="M152.6,92.9v-0.8c0.8-0.1,1.3-0.2,1.6-0.4s0.5-0.6,0.7-1.2h0.8v8.4h-1.1v-5.9H152.6z"/>
		<path d="M159.9,96.7c0.1,0.6,0.3,1,0.8,1.2c0.2,0.1,0.5,0.2,0.9,0.2c0.6,0,1.1-0.2,1.4-0.6s0.5-0.8,0.5-1.3c0-0.6-0.2-1-0.5-1.4
			s-0.8-0.5-1.3-0.5c-0.4,0-0.7,0.1-0.9,0.2s-0.5,0.3-0.7,0.6l-0.9-0.1l0.6-4.5h4.4v1h-3.6l-0.4,2.3c0.2-0.1,0.4-0.3,0.6-0.3
			c0.3-0.1,0.7-0.2,1.1-0.2c0.8,0,1.4,0.2,2,0.7s0.8,1.1,0.8,1.9c0,0.8-0.2,1.5-0.7,2.1s-1.3,0.9-2.3,0.9c-0.7,0-1.3-0.2-1.8-0.6
			s-0.8-1-0.9-1.8H159.9z"/>
	</g>
	<g>
		<path d="M146.5,118.6v-0.8c0.8-0.1,1.3-0.2,1.6-0.4s0.5-0.6,0.7-1.2h0.8v8.4h-1.1v-5.9H146.5z"/>
		<path d="M152.6,118.6v-0.8c0.8-0.1,1.3-0.2,1.6-0.4s0.5-0.6,0.7-1.2h0.8v8.4h-1.1v-5.9H152.6z"/>
		<path d="M164,117.5c0.4,0.7,0.6,1.6,0.6,2.8c0,1.1-0.2,2.1-0.5,2.8c-0.5,1.1-1.3,1.6-2.4,1.6c-1,0-1.8-0.4-2.2-1.3
			c-0.4-0.7-0.6-1.7-0.6-2.9c0-1,0.1-1.8,0.4-2.5c0.5-1.3,1.3-1.9,2.5-1.9C162.7,116.1,163.5,116.6,164,117.5z M162.9,123
			c0.3-0.5,0.5-1.4,0.5-2.7c0-1-0.1-1.7-0.4-2.4c-0.2-0.6-0.7-0.9-1.4-0.9c-0.6,0-1.1,0.3-1.4,0.9c-0.3,0.6-0.4,1.4-0.4,2.6
			c0,0.9,0.1,1.5,0.3,2.1c0.3,0.8,0.8,1.2,1.4,1.2C162.2,123.8,162.6,123.5,162.9,123z"/>
	</g>
	<g>
		<path d="M146.5,144.8V144c0.8-0.1,1.3-0.2,1.6-0.4s0.5-0.6,0.7-1.2h0.8v8.4h-1.1v-5.9H146.5z"/>
		<path d="M157.9,143.7c0.4,0.7,0.6,1.6,0.6,2.8c0,1.1-0.2,2.1-0.5,2.8c-0.5,1.1-1.3,1.6-2.4,1.6c-1,0-1.8-0.4-2.2-1.3
			c-0.4-0.7-0.6-1.7-0.6-2.9c0-1,0.1-1.8,0.4-2.5c0.5-1.3,1.3-1.9,2.5-1.9C156.6,142.3,157.4,142.8,157.9,143.7z M156.8,149.2
			c0.3-0.5,0.5-1.4,0.5-2.7c0-1-0.1-1.7-0.4-2.4c-0.2-0.6-0.7-0.9-1.4-0.9c-0.6,0-1.1,0.3-1.4,0.9c-0.3,0.6-0.4,1.4-0.4,2.6
			c0,0.9,0.1,1.5,0.3,2.1c0.3,0.8,0.8,1.2,1.4,1.2C156.1,150,156.5,149.7,156.8,149.2z"/>
		<path d="M160.8,148.6c0.1,0.6,0.3,1,0.8,1.2c0.2,0.1,0.5,0.2,0.9,0.2c0.6,0,1.1-0.2,1.4-0.6s0.5-0.8,0.5-1.3c0-0.6-0.2-1-0.5-1.4
			s-0.8-0.5-1.3-0.5c-0.4,0-0.7,0.1-0.9,0.2s-0.5,0.3-0.7,0.6L160,147l0.6-4.5h4.4v1h-3.6l-0.4,2.3c0.2-0.1,0.4-0.3,0.6-0.3
			c0.3-0.1,0.7-0.2,1.1-0.2c0.8,0,1.4,0.2,2,0.7s0.8,1.1,0.8,1.9c0,0.8-0.2,1.5-0.7,2.1s-1.3,0.9-2.3,0.9c-0.7,0-1.3-0.2-1.8-0.6
			s-0.8-1-0.9-1.8H160.8z"/>
	</g>
	<g>
		<path d="M146.5,171.6v-0.8c0.8-0.1,1.3-0.2,1.6-0.4s0.5-0.6,0.7-1.2h0.8v8.4h-1.1v-5.9H146.5z"/>
		<path d="M157.9,170.5c0.4,0.7,0.6,1.6,0.6,2.8c0,1.1-0.2,2.1-0.5,2.8c-0.5,1.1-1.3,1.6-2.4,1.6c-1,0-1.8-0.4-2.2-1.3
			c-0.4-0.7-0.6-1.7-0.6-2.9c0-1,0.1-1.8,0.4-2.5c0.5-1.3,1.3-1.9,2.5-1.9C156.6,169.1,157.4,169.6,157.9,170.5z M156.8,176.1
			c0.3-0.5,0.5-1.4,0.5-2.7c0-1-0.1-1.7-0.4-2.4c-0.2-0.6-0.7-0.9-1.4-0.9c-0.6,0-1.1,0.3-1.4,0.9c-0.3,0.6-0.4,1.4-0.4,2.6
			c0,0.9,0.1,1.5,0.3,2.1c0.3,0.8,0.8,1.2,1.4,1.2C156.1,176.8,156.5,176.5,156.8,176.1z"/>
		<path d="M164.9,170.5c0.4,0.7,0.6,1.6,0.6,2.8c0,1.1-0.2,2.1-0.5,2.8c-0.5,1.1-1.3,1.6-2.4,1.6c-1,0-1.8-0.4-2.2-1.3
			c-0.4-0.7-0.6-1.7-0.6-2.9c0-1,0.1-1.8,0.4-2.5c0.5-1.3,1.3-1.9,2.5-1.9C163.6,169.1,164.4,169.6,164.9,170.5z M163.8,176.1
			c0.3-0.5,0.5-1.4,0.5-2.7c0-1-0.1-1.7-0.4-2.4c-0.2-0.6-0.7-0.9-1.4-0.9c-0.6,0-1.1,0.3-1.4,0.9c-0.3,0.6-0.4,1.4-0.4,2.6
			c0,0.9,0.1,1.5,0.3,2.1c0.3,0.8,0.8,1.2,1.4,1.2C163.1,176.8,163.5,176.5,163.8,176.1z"/>
	</g>
	<g>
		<path d="M153.9,202.5c0,0.6,0.3,1,0.7,1.2c0.2,0.1,0.5,0.2,0.7,0.2c0.5,0,0.9-0.2,1.3-0.6s0.6-1.3,0.8-2.6
			c-0.2,0.4-0.5,0.6-0.9,0.8s-0.7,0.2-1.1,0.2c-0.8,0-1.4-0.3-1.9-0.8s-0.7-1.2-0.7-1.9c0-0.8,0.2-1.4,0.7-2s1.2-0.9,2.1-0.9
			c1.2,0,2.1,0.6,2.5,1.7c0.3,0.6,0.4,1.4,0.4,2.3c0,1-0.2,1.9-0.5,2.7c-0.5,1.3-1.4,2-2.6,2c-0.8,0-1.4-0.2-1.9-0.6s-0.6-1-0.6-1.6
			H153.9z M156.7,200.4c0.3-0.3,0.5-0.8,0.5-1.4c0-0.6-0.2-1.1-0.5-1.4c-0.3-0.3-0.7-0.5-1.2-0.5c-0.5,0-0.9,0.2-1.2,0.5
			s-0.5,0.8-0.5,1.4c0,0.5,0.1,1,0.4,1.3s0.7,0.5,1.3,0.5C156,200.8,156.3,200.6,156.7,200.4z"/>
		<path d="M160.8,202.4c0.1,0.6,0.3,1,0.8,1.2c0.2,0.1,0.5,0.2,0.9,0.2c0.6,0,1.1-0.2,1.4-0.6s0.5-0.8,0.5-1.3c0-0.6-0.2-1-0.5-1.4
			s-0.8-0.5-1.3-0.5c-0.4,0-0.7,0.1-0.9,0.2s-0.5,0.3-0.7,0.6l-0.9-0.1l0.6-4.5h4.4v1h-3.6l-0.4,2.3c0.2-0.1,0.4-0.3,0.6-0.3
			c0.3-0.1,0.7-0.2,1.1-0.2c0.8,0,1.4,0.2,2,0.7s0.8,1.1,0.8,1.9c0,0.8-0.2,1.5-0.7,2.1s-1.3,0.9-2.3,0.9c-0.7,0-1.3-0.2-1.8-0.6
			s-0.8-1-0.9-1.8H160.8z"/>
	</g>
	<g>
		<path d="M153.9,229.2c0,0.6,0.3,1,0.7,1.2c0.2,0.1,0.5,0.2,0.7,0.2c0.5,0,0.9-0.2,1.3-0.6s0.6-1.3,0.8-2.6
			c-0.2,0.4-0.5,0.6-0.9,0.8s-0.7,0.2-1.1,0.2c-0.8,0-1.4-0.3-1.9-0.8s-0.7-1.2-0.7-1.9c0-0.8,0.2-1.4,0.7-2s1.2-0.9,2.1-0.9
			c1.2,0,2.1,0.6,2.5,1.7c0.3,0.6,0.4,1.4,0.4,2.3c0,1-0.2,1.9-0.5,2.7c-0.5,1.3-1.4,2-2.6,2c-0.8,0-1.4-0.2-1.9-0.6s-0.6-1-0.6-1.6
			H153.9z M156.7,227.1c0.3-0.3,0.5-0.8,0.5-1.4c0-0.6-0.2-1.1-0.5-1.4c-0.3-0.3-0.7-0.5-1.2-0.5c-0.5,0-0.9,0.2-1.2,0.5
			s-0.5,0.8-0.5,1.4c0,0.5,0.1,1,0.4,1.3s0.7,0.5,1.3,0.5C156,227.5,156.3,227.4,156.7,227.1z"/>
		<path d="M164.9,224.2c0.4,0.7,0.6,1.6,0.6,2.8c0,1.1-0.2,2.1-0.5,2.8c-0.5,1.1-1.3,1.6-2.4,1.6c-1,0-1.8-0.4-2.2-1.3
			c-0.4-0.7-0.6-1.7-0.6-2.9c0-1,0.1-1.8,0.4-2.5c0.5-1.3,1.3-1.9,2.5-1.9C163.7,222.9,164.4,223.3,164.9,224.2z M163.9,229.8
			c0.3-0.5,0.5-1.4,0.5-2.7c0-1-0.1-1.7-0.4-2.4c-0.2-0.6-0.7-0.9-1.4-0.9c-0.6,0-1.1,0.3-1.4,0.9c-0.3,0.6-0.4,1.4-0.4,2.6
			c0,0.9,0.1,1.5,0.3,2.1c0.3,0.8,0.8,1.2,1.4,1.2C163.1,230.5,163.5,230.3,163.9,229.8z"/>
	</g>
	<g>
		<path d="M153.5,252c-0.3-0.3-0.5-0.7-0.5-1.2c0-0.6,0.2-1.2,0.7-1.6s1.1-0.7,1.9-0.7c0.8,0,1.4,0.2,1.9,0.6
			c0.5,0.4,0.7,0.9,0.7,1.5c0,0.5-0.1,0.9-0.4,1.3c-0.1,0.2-0.4,0.4-0.7,0.5c0.3,0.2,0.6,0.3,0.8,0.6c0.4,0.4,0.6,0.9,0.6,1.5
			c0,0.7-0.2,1.4-0.7,1.9s-1.2,0.8-2.1,0.8c-0.8,0-1.5-0.2-2.1-0.7s-0.8-1.1-0.8-1.9c0-0.5,0.1-0.9,0.4-1.3s0.6-0.6,1.1-0.8
			C153.9,252.3,153.7,252.2,153.5,252z M156.9,255.8c0.3-0.3,0.5-0.7,0.5-1.2c0-0.5-0.2-1-0.5-1.2s-0.8-0.4-1.3-0.4
			c-0.5,0-0.9,0.1-1.2,0.4s-0.5,0.7-0.5,1.2c0,0.4,0.1,0.8,0.4,1.1s0.7,0.5,1.4,0.5C156.2,256.2,156.6,256.1,156.9,255.8z
			 M156.7,251.7c0.3-0.3,0.4-0.6,0.4-0.9c0-0.3-0.1-0.6-0.4-0.9c-0.2-0.3-0.6-0.4-1.1-0.4c-0.5,0-0.9,0.1-1.1,0.4
			c-0.2,0.3-0.3,0.6-0.3,0.9c0,0.4,0.1,0.7,0.4,0.9c0.3,0.2,0.6,0.3,1,0.3C156.1,252.1,156.4,251.9,156.7,251.7z"/>
		<path d="M160.8,254.8c0.1,0.6,0.3,1,0.8,1.2c0.2,0.1,0.5,0.2,0.9,0.2c0.6,0,1.1-0.2,1.4-0.6s0.5-0.8,0.5-1.3c0-0.6-0.2-1-0.5-1.4
			s-0.8-0.5-1.3-0.5c-0.4,0-0.7,0.1-0.9,0.2s-0.5,0.3-0.7,0.6l-0.9-0.1l0.6-4.5h4.4v1h-3.6l-0.4,2.3c0.2-0.1,0.4-0.3,0.6-0.3
			c0.3-0.1,0.7-0.2,1.1-0.2c0.8,0,1.4,0.2,2,0.7s0.8,1.1,0.8,1.9c0,0.8-0.2,1.5-0.7,2.1s-1.3,0.9-2.3,0.9c-0.7,0-1.3-0.2-1.8-0.6
			s-0.8-1-0.9-1.8H160.8z"/>
	</g>
	<g>
		<path d="M153.5,277.9c-0.3-0.3-0.5-0.7-0.5-1.2c0-0.6,0.2-1.2,0.7-1.6s1.1-0.7,1.9-0.7c0.8,0,1.4,0.2,1.9,0.6
			c0.5,0.4,0.7,0.9,0.7,1.5c0,0.5-0.1,0.9-0.4,1.3c-0.1,0.2-0.4,0.4-0.7,0.5c0.3,0.2,0.6,0.3,0.8,0.6c0.4,0.4,0.6,0.9,0.6,1.5
			c0,0.7-0.2,1.4-0.7,1.9s-1.2,0.8-2.1,0.8c-0.8,0-1.5-0.2-2.1-0.7s-0.8-1.1-0.8-1.9c0-0.5,0.1-0.9,0.4-1.3s0.6-0.6,1.1-0.8
			C153.9,278.2,153.7,278,153.5,277.9z M156.9,281.7c0.3-0.3,0.5-0.7,0.5-1.2c0-0.5-0.2-1-0.5-1.2s-0.8-0.4-1.3-0.4
			c-0.5,0-0.9,0.1-1.2,0.4s-0.5,0.7-0.5,1.2c0,0.4,0.1,0.8,0.4,1.1s0.7,0.5,1.4,0.5C156.2,282.1,156.6,281.9,156.9,281.7z
			 M156.7,277.5c0.3-0.3,0.4-0.6,0.4-0.9c0-0.3-0.1-0.6-0.4-0.9c-0.2-0.3-0.6-0.4-1.1-0.4c-0.5,0-0.9,0.1-1.1,0.4
			c-0.2,0.3-0.3,0.6-0.3,0.9c0,0.4,0.1,0.7,0.4,0.9c0.3,0.2,0.6,0.3,1,0.3C156.1,277.9,156.4,277.8,156.7,277.5z"/>
		<path d="M164.9,275.7c0.4,0.7,0.6,1.6,0.6,2.8c0,1.1-0.2,2.1-0.5,2.8c-0.5,1.1-1.3,1.6-2.4,1.6c-1,0-1.8-0.4-2.2-1.3
			c-0.4-0.7-0.6-1.7-0.6-2.9c0-1,0.1-1.8,0.4-2.5c0.5-1.3,1.3-1.9,2.5-1.9C163.7,274.4,164.4,274.8,164.9,275.7z M163.9,281.3
			c0.3-0.5,0.5-1.4,0.5-2.7c0-1-0.1-1.7-0.4-2.4c-0.2-0.6-0.7-0.9-1.4-0.9c-0.6,0-1.1,0.3-1.4,0.9c-0.3,0.6-0.4,1.4-0.4,2.6
			c0,0.9,0.1,1.5,0.3,2.1c0.3,0.8,0.8,1.2,1.4,1.2C163.1,282,163.5,281.8,163.9,281.3z"/>
	</g>
	<g>
		<path d="M286.3,275.7c0.4,0.7,0.6,1.6,0.6,2.8c0,1.1-0.2,2.1-0.5,2.8c-0.5,1.1-1.3,1.6-2.4,1.6c-1,0-1.8-0.4-2.2-1.3
			c-0.4-0.7-0.6-1.7-0.6-2.9c0-1,0.1-1.8,0.4-2.5c0.5-1.3,1.3-1.9,2.5-1.9C285.1,274.4,285.8,274.8,286.3,275.7z M285.3,281.3
			c0.3-0.5,0.5-1.4,0.5-2.7c0-1-0.1-1.7-0.4-2.4c-0.2-0.6-0.7-0.9-1.4-0.9c-0.6,0-1.1,0.3-1.4,0.9c-0.3,0.6-0.4,1.4-0.4,2.6
			c0,0.9,0.1,1.5,0.3,2.1c0.3,0.8,0.8,1.2,1.4,1.2C284.5,282,284.9,281.8,285.3,281.3z"/>
		<path d="M288.7,281.5h1.2v1.3h-1.2V281.5z"/>
		<path d="M296.9,275.7c0.4,0.7,0.6,1.6,0.6,2.8c0,1.1-0.2,2.1-0.5,2.8c-0.5,1.1-1.3,1.6-2.4,1.6c-1,0-1.8-0.4-2.2-1.3
			c-0.4-0.7-0.6-1.7-0.6-2.9c0-1,0.1-1.8,0.4-2.5c0.5-1.3,1.3-1.9,2.5-1.9C295.7,274.4,296.4,274.8,296.9,275.7z M295.9,281.3
			c0.3-0.5,0.5-1.4,0.5-2.7c0-1-0.1-1.7-0.4-2.4c-0.2-0.6-0.7-0.9-1.4-0.9c-0.6,0-1.1,0.3-1.4,0.9c-0.3,0.6-0.4,1.4-0.4,2.6
			c0,0.9,0.1,1.5,0.3,2.1c0.3,0.8,0.8,1.2,1.4,1.2C295.1,282,295.5,281.8,295.9,281.3z"/>
	</g>
	<g>
		<path d="M286.3,234.2c0.4,0.7,0.6,1.6,0.6,2.8c0,1.1-0.2,2.1-0.5,2.8c-0.5,1.1-1.3,1.6-2.4,1.6c-1,0-1.8-0.4-2.2-1.3
			c-0.4-0.7-0.6-1.7-0.6-2.9c0-1,0.1-1.8,0.4-2.5c0.5-1.3,1.3-1.9,2.5-1.9C285.1,232.9,285.8,233.3,286.3,234.2z M285.3,239.8
			c0.3-0.5,0.5-1.4,0.5-2.7c0-1-0.1-1.7-0.4-2.4c-0.2-0.6-0.7-0.9-1.4-0.9c-0.6,0-1.1,0.3-1.4,0.9c-0.3,0.6-0.4,1.4-0.4,2.6
			c0,0.9,0.1,1.5,0.3,2.1c0.3,0.8,0.8,1.2,1.4,1.2C284.5,240.5,284.9,240.3,285.3,239.8z"/>
		<path d="M288.7,240h1.2v1.3h-1.2V240z"/>
		<path d="M292.8,239.1c0.1,0.6,0.3,1,0.8,1.2c0.2,0.1,0.5,0.2,0.9,0.2c0.6,0,1.1-0.2,1.4-0.6s0.5-0.8,0.5-1.3c0-0.6-0.2-1-0.5-1.4
			s-0.8-0.5-1.3-0.5c-0.4,0-0.7,0.1-0.9,0.2s-0.5,0.3-0.7,0.6l-0.9-0.1l0.6-4.5h4.4v1h-3.6l-0.4,2.3c0.2-0.1,0.4-0.3,0.6-0.3
			c0.3-0.1,0.7-0.2,1.1-0.2c0.8,0,1.4,0.2,2,0.7s0.8,1.1,0.8,1.9c0,0.8-0.2,1.5-0.7,2.1s-1.3,0.9-2.3,0.9c-0.7,0-1.3-0.2-1.8-0.6
			s-0.8-1-0.9-1.8H292.8z"/>
	</g>
	<g>
		<path d="M281.9,192v-0.8c0.8-0.1,1.3-0.2,1.6-0.4s0.5-0.6,0.7-1.2h0.8v8.4h-1.1V192H281.9z"/>
		<path d="M288.7,196.7h1.2v1.3h-1.2V196.7z"/>
		<path d="M296.9,190.9c0.4,0.7,0.6,1.6,0.6,2.8c0,1.1-0.2,2.1-0.5,2.8c-0.5,1.1-1.3,1.6-2.4,1.6c-1,0-1.8-0.4-2.2-1.3
			c-0.4-0.7-0.6-1.7-0.6-2.9c0-1,0.1-1.8,0.4-2.5c0.5-1.3,1.3-1.9,2.5-1.9C295.7,189.5,296.4,190,296.9,190.9z M295.9,196.5
			c0.3-0.5,0.5-1.4,0.5-2.7c0-1-0.1-1.7-0.4-2.4c-0.2-0.6-0.7-0.9-1.4-0.9c-0.6,0-1.1,0.3-1.4,0.9c-0.3,0.6-0.4,1.4-0.4,2.6
			c0,0.9,0.1,1.5,0.3,2.1c0.3,0.8,0.8,1.2,1.4,1.2C295.1,197.2,295.5,197,295.9,196.5z"/>
	</g>
	<g>
		<path d="M281.9,149.3v-0.8c0.8-0.1,1.3-0.2,1.6-0.4s0.5-0.6,0.7-1.2h0.8v8.4h-1.1v-5.9H281.9z"/>
		<path d="M288.7,154h1.2v1.3h-1.2V154z"/>
		<path d="M292.8,153.1c0.1,0.6,0.3,1,0.8,1.2c0.2,0.1,0.5,0.2,0.9,0.2c0.6,0,1.1-0.2,1.4-0.6s0.5-0.8,0.5-1.3c0-0.6-0.2-1-0.5-1.4
			s-0.8-0.5-1.3-0.5c-0.4,0-0.7,0.1-0.9,0.2s-0.5,0.3-0.7,0.6l-0.9-0.1l0.6-4.5h4.4v1h-3.6l-0.4,2.3c0.2-0.1,0.4-0.3,0.6-0.3
			c0.3-0.1,0.7-0.2,1.1-0.2c0.8,0,1.4,0.2,2,0.7s0.8,1.1,0.8,1.9c0,0.8-0.2,1.5-0.7,2.1s-1.3,0.9-2.3,0.9c-0.7,0-1.3-0.2-1.8-0.6
			s-0.8-1-0.9-1.8H292.8z"/>
	</g>
	<g>
		<path d="M281.5,111.1c0.3-0.5,0.8-1,1.5-1.5l1.1-0.7c0.5-0.3,0.9-0.5,1.1-0.8c0.3-0.3,0.5-0.7,0.5-1.1c0-0.5-0.1-0.9-0.4-1.2
			s-0.7-0.4-1.2-0.4c-0.7,0-1.2,0.3-1.5,0.8c-0.1,0.3-0.2,0.7-0.2,1.2h-1.1c0-0.7,0.1-1.3,0.4-1.8c0.5-0.8,1.3-1.2,2.4-1.2
			c1,0,1.7,0.3,2.1,0.8s0.7,1.1,0.7,1.7c0,0.7-0.2,1.2-0.7,1.7c-0.3,0.3-0.8,0.6-1.5,1l-0.8,0.4c-0.4,0.2-0.7,0.4-0.9,0.6
			c-0.4,0.3-0.6,0.7-0.7,1.1h4.6v1h-5.8C281.1,112.2,281.3,111.6,281.5,111.1z"/>
		<path d="M288.7,111.7h1.2v1.3h-1.2V111.7z"/>
		<path d="M296.9,105.9c0.4,0.7,0.6,1.6,0.6,2.8c0,1.1-0.2,2.1-0.5,2.8c-0.5,1.1-1.3,1.6-2.4,1.6c-1,0-1.8-0.4-2.2-1.3
			c-0.4-0.7-0.6-1.7-0.6-2.9c0-1,0.1-1.8,0.4-2.5c0.5-1.3,1.3-1.9,2.5-1.9C295.7,104.5,296.4,105,296.9,105.9z M295.9,111.5
			c0.3-0.5,0.5-1.4,0.5-2.7c0-1-0.1-1.7-0.4-2.4c-0.2-0.6-0.7-0.9-1.4-0.9c-0.6,0-1.1,0.3-1.4,0.9c-0.3,0.6-0.4,1.4-0.4,2.6
			c0,0.9,0.1,1.5,0.3,2.1c0.3,0.8,0.8,1.2,1.4,1.2C295.1,112.2,295.5,112,295.9,111.5z"/>
	</g>
	<g>
		<path d="M281.5,67.6c0.3-0.5,0.8-1,1.5-1.5l1.1-0.7c0.5-0.3,0.9-0.5,1.1-0.8c0.3-0.3,0.5-0.7,0.5-1.1c0-0.5-0.1-0.9-0.4-1.2
			s-0.7-0.4-1.2-0.4c-0.7,0-1.2,0.3-1.5,0.8c-0.1,0.3-0.2,0.7-0.2,1.2h-1.1c0-0.7,0.1-1.3,0.4-1.8c0.5-0.8,1.3-1.2,2.4-1.2
			c1,0,1.7,0.3,2.1,0.8s0.7,1.1,0.7,1.7c0,0.7-0.2,1.2-0.7,1.7c-0.3,0.3-0.8,0.6-1.5,1l-0.8,0.4c-0.4,0.2-0.7,0.4-0.9,0.6
			c-0.4,0.3-0.6,0.7-0.7,1.1h4.6v1h-5.8C281.1,68.8,281.3,68.1,281.5,67.6z"/>
		<path d="M288.7,68.2h1.2v1.3h-1.2V68.2z"/>
		<path d="M292.8,67.4c0.1,0.6,0.3,1,0.8,1.2c0.2,0.1,0.5,0.2,0.9,0.2c0.6,0,1.1-0.2,1.4-0.6s0.5-0.8,0.5-1.3c0-0.6-0.2-1-0.5-1.4
			S295,65,294.5,65c-0.4,0-0.7,0.1-0.9,0.2s-0.5,0.3-0.7,0.6l-0.9-0.1l0.6-4.5h4.4v1h-3.6l-0.4,2.3c0.2-0.1,0.4-0.3,0.6-0.3
			c0.3-0.1,0.7-0.2,1.1-0.2c0.8,0,1.4,0.2,2,0.7s0.8,1.1,0.8,1.9c0,0.8-0.2,1.5-0.7,2.1s-1.3,0.9-2.3,0.9c-0.7,0-1.3-0.2-1.8-0.6
			s-0.8-1-0.9-1.8H292.8z"/>
	</g>
	<g>
		<path d="M20.5,118.9c0.1,0.6,0.3,1,0.8,1.2c0.2,0.1,0.5,0.2,0.9,0.2c0.6,0,1.1-0.2,1.4-0.6s0.5-0.8,0.5-1.3c0-0.6-0.2-1-0.5-1.4
			s-0.8-0.5-1.3-0.5c-0.4,0-0.7,0.1-0.9,0.2s-0.5,0.3-0.7,0.6l-0.9-0.1l0.6-4.5h4.4v1h-3.6l-0.4,2.3c0.2-0.1,0.4-0.3,0.6-0.3
			c0.3-0.1,0.7-0.2,1.1-0.2c0.8,0,1.4,0.2,2,0.7s0.8,1.1,0.8,1.9c0,0.8-0.2,1.5-0.7,2.1s-1.3,0.9-2.3,0.9c-0.7,0-1.3-0.2-1.8-0.6
			s-0.8-1-0.9-1.8H20.5z"/>
		<path d="M31.6,114c0.4,0.7,0.6,1.6,0.6,2.8c0,1.1-0.2,2.1-0.5,2.8c-0.5,1.1-1.3,1.6-2.4,1.6c-1,0-1.8-0.4-2.2-1.3
			c-0.4-0.7-0.6-1.7-0.6-2.9c0-1,0.1-1.8,0.4-2.5c0.5-1.3,1.3-1.9,2.5-1.9C30.3,112.6,31.1,113.1,31.6,114z M30.5,119.6
			c0.3-0.5,0.5-1.4,0.5-2.7c0-1-0.1-1.7-0.4-2.4c-0.2-0.6-0.7-0.9-1.4-0.9c-0.6,0-1.1,0.3-1.4,0.9c-0.3,0.6-0.4,1.4-0.4,2.6
			c0,0.9,0.1,1.5,0.3,2.1c0.3,0.8,0.8,1.2,1.4,1.2C29.8,120.3,30.2,120,30.5,119.6z"/>
	</g>
	<g>
		<path d="M23,176.5v-2.1h-3.7v-1l3.8-5.3H24v5.4h1.2v0.9H24v2.1H23z M23,173.6v-3.8l-2.7,3.8H23z"/>
		<path d="M31.6,169.5c0.4,0.7,0.6,1.6,0.6,2.8c0,1.1-0.2,2.1-0.5,2.8c-0.5,1.1-1.3,1.6-2.4,1.6c-1,0-1.8-0.4-2.2-1.3
			c-0.4-0.7-0.6-1.7-0.6-2.9c0-1,0.1-1.8,0.4-2.5c0.5-1.3,1.3-1.9,2.5-1.9C30.3,168.1,31.1,168.6,31.6,169.5z M30.5,175.1
			c0.3-0.5,0.5-1.4,0.5-2.7c0-1-0.1-1.7-0.4-2.4c-0.2-0.6-0.7-0.9-1.4-0.9c-0.6,0-1.1,0.3-1.4,0.9c-0.3,0.6-0.4,1.4-0.4,2.6
			c0,0.9,0.1,1.5,0.3,2.1c0.3,0.8,0.8,1.2,1.4,1.2C29.8,175.8,30.2,175.5,30.5,175.1z"/>
	</g>
	<g>
		<path d="M20,230.7c-0.4-0.5-0.7-1.2-0.7-2h1.1c0,0.5,0.1,0.9,0.3,1.2c0.3,0.4,0.8,0.7,1.5,0.7c0.6,0,1-0.1,1.3-0.4
			s0.5-0.7,0.5-1.1c0-0.6-0.2-1-0.5-1.2s-0.8-0.3-1.5-0.3c-0.1,0-0.1,0-0.2,0s-0.1,0-0.2,0v-0.9c0.1,0,0.2,0,0.3,0s0.2,0,0.2,0
			c0.4,0,0.7-0.1,1-0.2c0.4-0.2,0.7-0.6,0.7-1.2c0-0.4-0.1-0.7-0.4-1s-0.6-0.3-1-0.3c-0.7,0-1.2,0.2-1.5,0.7
			c-0.1,0.3-0.2,0.6-0.3,1.1h-1c0-0.6,0.1-1.2,0.4-1.6c0.4-0.8,1.2-1.2,2.3-1.2c0.9,0,1.5,0.2,2,0.6s0.7,0.9,0.7,1.7
			c0,0.5-0.1,0.9-0.4,1.3c-0.2,0.2-0.4,0.4-0.7,0.5c0.4,0.1,0.8,0.4,1,0.7s0.4,0.8,0.4,1.3c0,0.8-0.3,1.5-0.8,2s-1.3,0.8-2.2,0.8
			C21.1,231.5,20.4,231.2,20,230.7z"/>
		<path d="M31.6,224.2c0.4,0.7,0.6,1.6,0.6,2.8c0,1.1-0.2,2.1-0.5,2.8c-0.5,1.1-1.3,1.6-2.4,1.6c-1,0-1.8-0.4-2.2-1.3
			c-0.4-0.7-0.6-1.7-0.6-2.9c0-1,0.1-1.8,0.4-2.5c0.5-1.3,1.3-1.9,2.5-1.9C30.3,222.9,31.1,223.3,31.6,224.2z M30.5,229.8
			c0.3-0.5,0.5-1.4,0.5-2.7c0-1-0.1-1.7-0.4-2.4c-0.2-0.6-0.7-0.9-1.4-0.9c-0.6,0-1.1,0.3-1.4,0.9c-0.3,0.6-0.4,1.4-0.4,2.6
			c0,0.9,0.1,1.5,0.3,2.1c0.3,0.8,0.8,1.2,1.4,1.2C29.8,230.5,30.2,230.3,30.5,229.8z"/>
	</g>
	<g>
		<path d="M19.8,280.9c0.3-0.5,0.8-1,1.5-1.5l1.1-0.7c0.5-0.3,0.9-0.5,1.1-0.8c0.3-0.3,0.5-0.7,0.5-1.1c0-0.5-0.1-0.9-0.4-1.2
			s-0.7-0.4-1.2-0.4c-0.7,0-1.2,0.3-1.5,0.8c-0.1,0.3-0.2,0.7-0.2,1.2h-1.1c0-0.7,0.1-1.3,0.4-1.8c0.5-0.8,1.3-1.2,2.4-1.2
			c1,0,1.7,0.3,2.1,0.8s0.7,1.1,0.7,1.7c0,0.7-0.2,1.2-0.7,1.7c-0.3,0.3-0.8,0.6-1.5,1l-0.8,0.4c-0.4,0.2-0.7,0.4-0.9,0.6
			c-0.4,0.3-0.6,0.7-0.7,1.1h4.6v1h-5.8C19.4,282,19.6,281.4,19.8,280.9z"/>
		<path d="M31.6,275.7c0.4,0.7,0.6,1.6,0.6,2.8c0,1.1-0.2,2.1-0.5,2.8c-0.5,1.1-1.3,1.6-2.4,1.6c-1,0-1.8-0.4-2.2-1.3
			c-0.4-0.7-0.6-1.7-0.6-2.9c0-1,0.1-1.8,0.4-2.5c0.5-1.3,1.3-1.9,2.5-1.9C30.3,274.4,31.1,274.8,31.6,275.7z M30.5,281.3
			c0.3-0.5,0.5-1.4,0.5-2.7c0-1-0.1-1.7-0.4-2.4c-0.2-0.6-0.7-0.9-1.4-0.9c-0.6,0-1.1,0.3-1.4,0.9c-0.3,0.6-0.4,1.4-0.4,2.6
			c0,0.9,0.1,1.5,0.3,2.1c0.3,0.8,0.8,1.2,1.4,1.2C29.8,282,30.2,281.8,30.5,281.3z"/>
	</g>
	<g>
		<path class="st7" d="M24.9,409.1h1.4v10h-1.4V409.1z"/>
		<path class="st7" d="M28.9,409.7h1.2v2h1.2v1h-1.2v4.8c0,0.3,0.1,0.4,0.3,0.5c0.1,0.1,0.3,0.1,0.5,0.1c0.1,0,0.1,0,0.2,0
			s0.1,0,0.2,0v1c-0.1,0-0.3,0.1-0.4,0.1c-0.2,0-0.3,0-0.5,0c-0.6,0-1-0.1-1.2-0.4s-0.3-0.7-0.3-1.1v-4.8h-1v-1h1V409.7z"/>
		<path class="st7" d="M37.4,412c0.5,0.2,0.9,0.6,1.1,0.9c0.2,0.4,0.4,0.8,0.5,1.3c0.1,0.3,0.1,0.9,0.1,1.6h-5.3
			c0,0.7,0.2,1.3,0.5,1.8c0.3,0.5,0.8,0.7,1.5,0.7c0.6,0,1.1-0.2,1.5-0.6c0.2-0.2,0.4-0.5,0.5-0.9H39c0,0.3-0.1,0.6-0.3,0.9
			c-0.2,0.3-0.4,0.6-0.6,0.8c-0.4,0.4-0.8,0.6-1.4,0.7c-0.3,0.1-0.6,0.1-1,0.1c-0.9,0-1.7-0.3-2.3-1c-0.6-0.7-0.9-1.6-0.9-2.8
			c0-1.2,0.3-2.1,1-2.9c0.6-0.7,1.5-1.1,2.5-1.1C36.4,411.6,36.9,411.7,37.4,412z M37.8,414.9c0-0.5-0.2-1-0.3-1.3
			c-0.3-0.6-0.9-0.9-1.7-0.9c-0.6,0-1,0.2-1.4,0.6c-0.4,0.4-0.6,0.9-0.6,1.6H37.8z"/>
		<path class="st7" d="M41,411.8h1.2v1c0.3-0.4,0.6-0.6,0.8-0.8c0.4-0.3,0.9-0.4,1.4-0.4c0.6,0,1.1,0.1,1.4,0.4
			c0.2,0.2,0.4,0.4,0.5,0.7c0.3-0.4,0.6-0.7,1-0.9c0.4-0.2,0.8-0.3,1.2-0.3c1,0,1.7,0.4,2,1.1c0.2,0.4,0.3,0.9,0.3,1.5v4.9h-1.3V414
			c0-0.5-0.1-0.8-0.4-1c-0.2-0.2-0.5-0.3-0.9-0.3c-0.5,0-0.9,0.2-1.2,0.5c-0.3,0.3-0.5,0.9-0.5,1.6v4.3h-1.3v-4.8
			c0-0.5-0.1-0.9-0.2-1.1c-0.2-0.3-0.5-0.5-1-0.5c-0.5,0-0.9,0.2-1.3,0.5c-0.4,0.4-0.6,1-0.6,2v3.9H41V411.8z"/>
		<path class="st7" d="M57.3,416.9c0.3-0.6,0.9-1.2,1.8-1.7l1.3-0.8c0.6-0.3,1-0.6,1.2-0.9c0.4-0.4,0.6-0.8,0.6-1.3
			c0-0.6-0.2-1-0.5-1.4c-0.3-0.3-0.8-0.5-1.4-0.5c-0.8,0-1.4,0.3-1.8,1c-0.2,0.3-0.3,0.8-0.3,1.4H57c0-0.9,0.2-1.5,0.5-2.1
			c0.5-0.9,1.5-1.4,2.8-1.4c1.1,0,1.9,0.3,2.5,0.9c0.5,0.6,0.8,1.3,0.8,2c0,0.8-0.3,1.5-0.8,2c-0.3,0.3-0.9,0.7-1.7,1.2l-0.9,0.5
			c-0.4,0.2-0.8,0.5-1.1,0.7c-0.5,0.4-0.7,0.8-0.9,1.3h5.3v1.2h-6.7C56.9,418.3,57,417.5,57.3,416.9z"/>
	</g>
	<g>
		<path d="M287.4,20.4h2.2l-3.4,10.1h-2l-3.4-10.1h2.2l2.2,7.6L287.4,20.4z"/>
		<path d="M293.2,26c0.4,0,0.6-0.1,0.8-0.2c0.3-0.1,0.4-0.3,0.4-0.6c0-0.3-0.1-0.5-0.3-0.6s-0.5-0.2-0.9-0.2c-0.5,0-0.8,0.1-1,0.3
			c-0.1,0.2-0.2,0.4-0.3,0.7H290c0-0.7,0.2-1.2,0.5-1.6c0.5-0.7,1.4-1,2.7-1c0.8,0,1.5,0.2,2.2,0.5c0.6,0.3,1,0.9,1,1.8v3.4
			c0,0.2,0,0.5,0,0.9c0,0.3,0.1,0.4,0.1,0.5c0.1,0.1,0.2,0.2,0.3,0.2v0.3h-2.1c-0.1-0.2-0.1-0.3-0.1-0.4c0-0.1,0-0.3-0.1-0.5
			c-0.3,0.3-0.6,0.5-0.9,0.7c-0.4,0.2-0.9,0.4-1.4,0.4c-0.7,0-1.2-0.2-1.7-0.6s-0.7-0.9-0.7-1.6c0-0.9,0.4-1.6,1.1-2
			c0.4-0.2,1-0.4,1.7-0.5L293.2,26z M294.4,26.9c-0.1,0.1-0.3,0.1-0.4,0.2s-0.3,0.1-0.5,0.1l-0.4,0.1c-0.4,0.1-0.7,0.2-0.9,0.3
			c-0.3,0.2-0.5,0.5-0.5,0.8c0,0.3,0.1,0.6,0.3,0.7s0.4,0.2,0.7,0.2c0.4,0,0.8-0.1,1.2-0.4c0.4-0.2,0.5-0.7,0.6-1.3V26.9z"/>
		<path d="M302.5,22.9c0,0,0.1,0,0.2,0v2c-0.1,0-0.2,0-0.3,0s-0.2,0-0.2,0c-0.8,0-1.3,0.3-1.6,0.8c-0.2,0.3-0.2,0.7-0.2,1.3v3.6h-2
			V23h1.9v1.3c0.3-0.5,0.6-0.8,0.8-1C301.4,23,301.9,22.9,302.5,22.9C302.5,22.9,302.5,22.9,302.5,22.9z"/>
		<path d="M306.2,22.2h-2v-1.8h2V22.2z M304.2,23h2v7.5h-2V23z"/>
		<path d="M311.4,26c0.4,0,0.6-0.1,0.8-0.2c0.3-0.1,0.4-0.3,0.4-0.6c0-0.3-0.1-0.5-0.3-0.6s-0.5-0.2-0.9-0.2c-0.5,0-0.8,0.1-1,0.3
			c-0.1,0.2-0.2,0.4-0.3,0.7h-1.9c0-0.7,0.2-1.2,0.5-1.6c0.5-0.7,1.4-1,2.7-1c0.8,0,1.5,0.2,2.2,0.5c0.6,0.3,1,0.9,1,1.8v3.4
			c0,0.2,0,0.5,0,0.9c0,0.3,0.1,0.4,0.1,0.5c0.1,0.1,0.2,0.2,0.3,0.2v0.3h-2.1c-0.1-0.2-0.1-0.3-0.1-0.4c0-0.1,0-0.3-0.1-0.5
			c-0.3,0.3-0.6,0.5-0.9,0.7c-0.4,0.2-0.9,0.4-1.4,0.4c-0.7,0-1.2-0.2-1.7-0.6s-0.7-0.9-0.7-1.6c0-0.9,0.4-1.6,1.1-2
			c0.4-0.2,1-0.4,1.7-0.5L311.4,26z M312.6,26.9c-0.1,0.1-0.3,0.1-0.4,0.2s-0.3,0.1-0.5,0.1l-0.4,0.1c-0.4,0.1-0.7,0.2-0.9,0.3
			c-0.3,0.2-0.5,0.5-0.5,0.8c0,0.3,0.1,0.6,0.3,0.7s0.4,0.2,0.7,0.2c0.4,0,0.8-0.1,1.2-0.4c0.4-0.2,0.5-0.7,0.6-1.3V26.9z"/>
		<path d="M322.9,23.9c0.6,0.7,0.8,1.6,0.8,2.7c0,1.2-0.3,2.1-0.8,2.9c-0.5,0.8-1.3,1.1-2.3,1.1c-0.6,0-1.1-0.1-1.5-0.4
			c-0.2-0.1-0.5-0.4-0.7-0.8v0.9h-1.9V20.4h1.9V24c0.2-0.3,0.5-0.6,0.8-0.8c0.4-0.2,0.8-0.3,1.3-0.3
			C321.6,22.9,322.4,23.2,322.9,23.9z M321.3,28.5c0.3-0.4,0.4-0.9,0.4-1.6c0-0.5-0.1-1-0.2-1.3c-0.3-0.7-0.7-1-1.4-1
			c-0.7,0-1.2,0.3-1.5,1c-0.1,0.3-0.2,0.8-0.2,1.3c0,0.6,0.1,1.2,0.4,1.6s0.7,0.6,1.3,0.6C320.6,29.1,321,28.9,321.3,28.5z"/>
		<path d="M327.5,30.5h-1.9V20.4h1.9V30.5z"/>
		<path d="M334.6,23.2c0.5,0.2,0.9,0.6,1.3,1.1c0.3,0.4,0.5,1,0.6,1.5c0.1,0.3,0.1,0.8,0.1,1.5h-5.4c0,0.7,0.3,1.3,0.8,1.6
			c0.3,0.2,0.7,0.3,1.1,0.3c0.4,0,0.8-0.1,1.1-0.3c0.2-0.1,0.3-0.3,0.4-0.5h2c-0.1,0.4-0.3,0.9-0.7,1.3c-0.7,0.7-1.6,1.1-2.8,1.1
			c-1,0-1.9-0.3-2.6-0.9c-0.8-0.6-1.1-1.6-1.1-3c0-1.3,0.3-2.3,1-3c0.7-0.7,1.6-1,2.7-1C333.5,22.9,334,23,334.6,23.2z M331.6,24.9
			c-0.3,0.3-0.4,0.7-0.5,1.2h3.4c0-0.5-0.2-0.9-0.5-1.2c-0.3-0.3-0.7-0.4-1.2-0.4C332.3,24.5,331.9,24.6,331.6,24.9z"/>
		<path d="M305.5,38.3c0.8-0.8,1.8-1.2,3.1-1.2c1.7,0,2.9,0.6,3.7,1.7c0.4,0.6,0.7,1.3,0.7,1.9h-2.1c-0.1-0.5-0.3-0.8-0.5-1.1
			c-0.4-0.4-0.9-0.7-1.7-0.7c-0.8,0-1.3,0.3-1.8,0.9c-0.4,0.6-0.7,1.5-0.7,2.6s0.2,2,0.7,2.5s1,0.8,1.7,0.8c0.7,0,1.3-0.2,1.7-0.7
			c0.2-0.3,0.4-0.6,0.5-1.2h2.1c-0.2,1.1-0.6,2-1.4,2.7c-0.7,0.7-1.7,1-2.9,1c-1.4,0-2.6-0.5-3.4-1.4c-0.8-0.9-1.2-2.2-1.2-3.8
			C304.1,40.6,304.5,39.2,305.5,38.3z"/>
	</g>
	<polyline class="st8" points="37.5,66.5 46.5,66.5 46.5,279.5 37.5,279.5 	"/>
	<line class="st8" x1="46.5" y1="173" x2="37.5" y2="173"/>
	<line class="st8" x1="46.5" y1="118.5" x2="37.5" y2="118.5"/>
	<line class="st8" x1="46.5" y1="227.5" x2="37.5" y2="227.5"/>
	<polyline class="st8" points="303.5,66.5 312.5,66.5 312.5,279.5 303.5,279.5 	"/>
	<line class="st8" x1="312.5" y1="151.7" x2="303.5" y2="151.7"/>
	<line class="st8" x1="312.5" y1="194.3" x2="303.5" y2="194.3"/>
	<line class="st8" x1="312.5" y1="109.1" x2="303.5" y2="109.1"/>
	<line class="st8" x1="312.5" y1="236.9" x2="303.5" y2="236.9"/>
	<polyline class="st8" points="170.5,66.5 179.5,66.5 179.5,279.5 170.5,279.5 	"/>
	<line class="st8" x1="179.5" y1="121" x2="170.5" y2="121"/>
	<line class="st8" x1="179.5" y1="147.5" x2="170.5" y2="147.5"/>
	<line class="st8" x1="179.5" y1="174.1" x2="170.5" y2="174.1"/>
	<line class="st8" x1="179.5" y1="200.6" x2="170.5" y2="200.6"/>
	<line class="st8" x1="179.5" y1="94.5" x2="170.5" y2="94.5"/>
	<line class="st8" x1="179.5" y1="227.1" x2="170.5" y2="227.1"/>
	<line class="st8" x1="179.5" y1="253.6" x2="170.5" y2="253.6"/>
	<g>
		<rect x="18.1" y="322.1" class="st9" width="313.8" height="105.3"/>
		<line class="st9" x1="18.1" y1="401.1" x2="331.9" y2="401.1"/>
		<line class="st9" x1="18.1" y1="374.8" x2="331.9" y2="374.8"/>
		<line class="st9" x1="18.1" y1="348.4" x2="331.9" y2="348.4"/>
		<line class="st9" x1="248.4" y1="348.4" x2="248.4" y2="427.4"/>
		<line class="st9" x1="165" y1="348.4" x2="165" y2="427.4"/>
		<line class="st9" x1="81.5" y1="348.4" x2="81.5" y2="427.4"/>
	</g>
	<g>
	</g>
	<g>
	</g>
	<g>
	</g>
	<g>
	</g>
	<g>
	</g>
	<g>
	</g>
	<g>
	</g>
	<g>
	</g>
	<g>
	</g>
	<g>
	</g>
</g>
</svg>
